<svg width="120" height="36" viewBox="0 0 120 36" fill="none" xmlns="http://www.w3.org/2000/svg">
<path d="M19.8979 14.2397L20.0947 14.3906C21.1402 15.1913 22.0216 16.1864 22.6909 17.321C23.6212 18.8984 24.1117 20.6963 24.1117 22.5275V28.8326C24.1117 30.212 23.5447 31.5305 22.5433 32.4791C20.659 34.2644 17.725 34.3196 15.7744 32.6072L15.7138 32.5541C14.6086 31.5836 13.975 30.1838 13.975 28.7129V22.4306C13.975 22.2932 13.8637 22.1816 13.7263 22.1816H7.21627C5.85937 22.1816 4.55797 21.6428 3.59857 20.6834C1.65278 18.7373 1.59459 15.6008 3.46717 13.5842L3.52147 13.5257C4.50517 12.4664 5.88577 11.8643 7.33147 11.8643H12.8902C15.4237 11.8643 17.8864 12.6992 19.8979 14.2397ZM19.8979 14.2397L18.9997 15.4121" stroke="#030017" stroke-width="3"/>
<path d="M22.2218 2.79255L22.2824 2.84565V2.84595C23.3876 3.81616 24.0212 5.21596 24.0212 6.68686V12.9692C24.0212 13.1066 24.1328 13.2182 24.2702 13.2182H30.7802C32.1371 13.2182 33.4382 13.757 34.3976 14.7164C36.3437 16.6625 36.4016 19.799 34.5293 21.8156L34.4747 21.8741C33.491 22.9334 32.1107 23.5355 30.6647 23.5355H25.1063C22.5728 23.5355 20.1098 22.7006 18.0986 21.1601L17.9018 21.0092C16.856 20.2085 15.9746 19.2134 15.3056 18.0788C14.3753 16.5014 13.8845 14.7035 13.8845 12.8723V6.56716C13.8845 5.18776 14.4518 3.86926 15.4529 2.92065C17.3372 1.13535 20.2715 1.07985 22.2218 2.79255ZM22.2218 2.79255L21.2321 3.91966" stroke="#0D9488" stroke-width="3"/>
<path d="M52.7102 22.6422C51.2801 22.6422 49.9535 22.4181 48.7301 21.9702C47.5238 21.5049 46.4729 20.85 45.5768 20.0058C44.6981 19.1616 44.0087 18.1707 43.5092 17.0334C43.0094 15.879 42.7595 14.6127 42.7595 13.2342C42.7595 11.8557 43.0094 10.5978 43.5092 9.46047C44.0087 8.30607 44.6981 7.30677 45.5768 6.46257C46.4729 5.61807 47.5238 4.97187 48.7301 4.52397C49.9535 4.05867 51.2801 3.82617 52.7102 3.82617C54.3818 3.82617 55.8722 4.11897 57.1817 4.70487C58.5083 5.29077 59.6111 6.13497 60.4901 7.23777L57.2333 10.1844C56.6474 9.49497 56.0012 8.96937 55.295 8.60757C54.6056 8.24577 53.8304 8.06487 52.9688 8.06487C52.2278 8.06487 51.5471 8.18547 50.927 8.42667C50.3066 8.66787 49.7723 9.02127 49.3244 9.48627C48.8936 9.93447 48.5492 10.4772 48.2906 11.1147C48.0494 11.7522 47.9288 12.4587 47.9288 13.2342C47.9288 14.0094 48.0494 14.7159 48.2906 15.3534C48.5492 15.9912 48.8936 16.5423 49.3244 17.0076C49.7723 17.4558 50.3066 17.8002 50.927 18.0414C51.5471 18.2826 52.2278 18.4035 52.9688 18.4035C53.8304 18.4035 54.6056 18.2223 55.295 17.8605C56.0012 17.4987 56.6474 16.9731 57.2333 16.284L60.4901 19.2303C59.6111 20.316 58.5083 21.1602 57.1817 21.7632C55.8722 22.3491 54.3818 22.6422 52.7102 22.6422Z" fill="#030017"/>
<path d="M62.5393 22.2803V3.10254H67.45V22.2803H62.5393Z" fill="#030017"/>
<path d="M70.6413 22.2804V8.2716H75.552V22.2804H70.6413ZM73.0968 6.7209C72.2007 6.7209 71.4771 6.471 70.9257 5.9715C70.3743 5.4717 70.0986 4.8513 70.0986 4.1106C70.0986 3.3696 70.3743 2.7492 70.9257 2.2494C71.4771 1.7499 72.2007 1.5 73.0968 1.5C73.9926 1.5 74.7165 1.7412 75.2679 2.2236C75.819 2.6889 76.0947 3.2919 76.0947 4.0329C76.0947 4.8084 75.819 5.4546 75.2679 5.9715C74.7336 6.471 74.01 6.7209 73.0968 6.7209Z" fill="#030017"/>
<path d="M87.867 8.03906C88.9527 8.03906 89.9349 8.26316 90.8136 8.71106C91.6923 9.14186 92.3817 9.81386 92.8812 10.7271C93.3981 11.6403 93.6567 12.8205 93.6567 14.268V22.2804H88.746V15.0693C88.746 14.0697 88.539 13.3461 88.1256 12.8982C87.7293 12.4329 87.1692 12.2004 86.4456 12.2004C85.9287 12.2004 85.4547 12.321 85.0242 12.5622C84.5934 12.786 84.2574 13.1394 84.0162 13.6218C83.7747 14.1042 83.6541 14.7333 83.6541 15.5085V22.2804H78.7434V8.27156H83.4216V12.252L82.5171 11.0889C83.0511 10.0722 83.7834 9.31406 84.714 8.81426C85.6443 8.29736 86.6955 8.03906 87.867 8.03906Z" fill="#030017"/>
<path d="M96.7397 22.2804V8.2716H101.65V22.2804H96.7397ZM99.1952 6.7209C98.2991 6.7209 97.5755 6.471 97.0241 5.9715C96.4727 5.4717 96.197 4.8513 96.197 4.1106C96.197 3.3696 96.4727 2.7492 97.0241 2.2494C97.5755 1.7499 98.2991 1.5 99.1952 1.5C100.091 1.5 100.815 1.7412 101.366 2.2236C101.918 2.6889 102.193 3.2919 102.193 4.0329C102.193 4.8084 101.918 5.4546 101.366 5.9715C100.832 6.471 100.108 6.7209 99.1952 6.7209Z" fill="#030017"/>
<path d="M112.001 22.5129C110.451 22.5129 109.063 22.2027 107.84 21.5823C106.634 20.9622 105.686 20.1093 104.997 19.0236C104.308 17.9208 103.963 16.6629 103.963 15.2502C103.963 13.8372 104.308 12.588 104.997 11.5023C105.686 10.4169 106.634 9.57266 107.84 8.96936C109.063 8.34926 110.451 8.03906 112.001 8.03906C113.587 8.03906 114.956 8.37506 116.111 9.04706C117.265 9.71906 118.084 10.6668 118.566 11.8902L114.767 13.8285C114.439 13.1739 114.034 12.6999 113.552 12.4071C113.07 12.0969 112.544 11.9418 111.976 11.9418C111.407 11.9418 110.89 12.0711 110.425 12.3294C109.96 12.588 109.589 12.9672 109.313 13.4667C109.055 13.9491 108.926 14.5437 108.926 15.2502C108.926 15.9738 109.055 16.5855 109.313 17.0853C109.589 17.5848 109.96 17.964 110.425 18.2223C110.89 18.4809 111.407 18.6102 111.976 18.6102C112.544 18.6102 113.07 18.4638 113.552 18.1707C114.034 17.8605 114.439 17.3781 114.767 16.7235L118.566 18.6618C118.084 19.8852 117.265 20.8329 116.111 21.5049C114.956 22.1769 113.587 22.5129 112.001 22.5129Z" fill="#030017"/>
<path d="M43.5996 34.3423V22.8838H44.9418L50.0817 31.543H49.3617L54.4359 22.8838H55.7784L55.7946 34.3423H54.2232L54.207 25.3555H54.5835L50.0655 32.9509H49.3125L44.7618 25.3555H45.171V34.3423H43.5996Z" fill="#0D9488"/>
<path d="M64.39 34.3415V32.5079L64.3081 32.1644V29.0379C64.3081 28.3722 64.1116 27.8592 63.7186 27.4992C63.3367 27.1281 62.7583 26.9427 61.9837 26.9427C61.4707 26.9427 60.9688 27.03 60.4777 27.2046C59.9866 27.3681 59.572 27.5919 59.2336 27.8757L58.5786 26.697C59.0262 26.337 59.5609 26.064 60.1831 25.8786C60.8158 25.6821 61.4761 25.584 62.1637 25.584C63.3532 25.584 64.2697 25.8732 64.9138 26.4516C65.5576 27.03 65.8795 27.9138 65.8795 29.1033V34.3415H64.39ZM61.5415 34.4396C60.8977 34.4396 60.3304 34.3304 59.8393 34.1123C59.359 33.8939 58.9882 33.5939 58.726 33.212C58.4641 32.819 58.3333 32.3771 58.3333 31.886C58.3333 31.4168 58.4425 30.9911 58.6606 30.6092C58.8898 30.2273 59.2555 29.9217 59.7574 29.6925C60.2704 29.4636 60.9577 29.349 61.8199 29.349H64.57V30.4784H61.8853C61.0996 30.4784 60.5704 30.6092 60.2977 30.8711C60.0247 31.133 59.8885 31.4495 59.8885 31.8206C59.8885 32.246 60.0574 32.5898 60.3958 32.8517C60.7342 33.1028 61.2034 33.2282 61.8037 33.2282C62.3929 33.2282 62.9056 33.0974 63.3424 32.8355C63.7897 32.5736 64.1116 32.1917 64.3081 31.6895L64.6192 32.7698C64.4116 33.2828 64.0462 33.692 63.5224 33.9977C62.9986 34.2923 62.3383 34.4396 61.5415 34.4396Z" fill="#0D9488"/>
<path d="M71.2756 34.4396C70.5553 34.4396 69.868 34.3415 69.2131 34.145C68.5693 33.9485 68.062 33.7085 67.6909 33.4247L68.3455 32.1806C68.7166 32.4317 69.175 32.6444 69.7207 32.819C70.2664 32.9936 70.8229 33.0809 71.3902 33.0809C72.1213 33.0809 72.6451 32.9774 72.9616 32.7698C73.2892 32.5625 73.4527 32.2733 73.4527 31.9025C73.4527 31.6295 73.3546 31.4168 73.1581 31.2641C72.9616 31.1111 72.6997 30.9965 72.3724 30.9203C72.0559 30.8438 71.7013 30.7784 71.3083 30.7238C70.9156 30.6584 70.5226 30.5819 70.1299 30.4946C69.7369 30.3965 69.3769 30.2654 69.0496 30.1019C68.722 29.9274 68.4601 29.6925 68.2639 29.3979C68.0674 29.0925 67.969 28.6887 67.969 28.1868C67.969 27.663 68.1163 27.2046 68.4112 26.8116C68.7058 26.4189 69.1204 26.1186 69.655 25.9113C70.2007 25.6932 70.8445 25.584 71.5867 25.584C72.1543 25.584 72.727 25.6548 73.3054 25.7967C73.8949 25.9278 74.3749 26.1186 74.746 26.3697L74.0749 27.6138C73.6819 27.3519 73.2727 27.1719 72.847 27.0735C72.4216 26.9754 71.9959 26.9262 71.5702 26.9262C70.8829 26.9262 70.3699 27.0408 70.0315 27.27C69.6934 27.4881 69.5242 27.7719 69.5242 28.1211C69.5242 28.4157 69.6223 28.6449 69.8188 28.8087C70.0261 28.9614 70.288 29.0814 70.6045 29.1687C70.9318 29.256 71.2921 29.3325 71.6848 29.3979C72.0778 29.4525 72.4705 29.529 72.8635 29.6271C73.2565 29.7144 73.6111 29.8401 73.9276 30.0035C74.2549 30.1673 74.5168 30.3965 74.7133 30.6911C74.9206 30.9857 75.0241 31.3787 75.0241 31.8695C75.0241 32.3933 74.8714 32.8463 74.566 33.2282C74.2603 33.6101 73.8292 33.9104 73.2727 34.1285C72.7162 34.3358 72.0505 34.4396 71.2756 34.4396Z" fill="#0D9488"/>
<path d="M79.9673 34.4404C79.094 34.4404 78.4175 34.2057 77.9375 33.7365C77.4572 33.2673 77.2172 32.5959 77.2172 31.7229V23.7676H78.7886V31.6575C78.7886 32.1267 78.9032 32.487 79.1324 32.7378C79.3724 32.9889 79.7108 33.1143 80.1473 33.1143C80.6384 33.1143 81.0476 32.9781 81.3749 32.7051L81.866 33.8346C81.626 34.0419 81.3368 34.1949 80.9984 34.293C80.6711 34.3911 80.3273 34.4404 79.9673 34.4404ZM75.7439 26.9596V25.6666H81.2768V26.9596H75.7439Z" fill="#0D9488"/>
<path d="M87.3413 34.4396C86.4137 34.4396 85.5953 34.2485 84.8858 33.8666C84.1874 33.4847 83.6417 32.9609 83.249 32.2952C82.8671 31.6295 82.676 30.8657 82.676 30.0035C82.676 29.1414 82.8614 28.3776 83.2325 27.7119C83.6144 27.0462 84.1328 26.5278 84.7877 26.157C85.4534 25.7748 86.2007 25.584 87.0302 25.584C87.8705 25.584 88.6127 25.7694 89.2565 26.1405C89.9003 26.5116 90.4022 27.0354 90.7625 27.7119C91.1333 28.3776 91.319 29.1579 91.319 30.0527C91.319 30.1181 91.3136 30.1946 91.3025 30.2819C91.3025 30.3692 91.2971 30.4511 91.2863 30.5273H83.9036V29.3979H90.4676L89.8292 29.7909C89.8403 29.2344 89.7257 28.7379 89.4857 28.3014C89.2454 27.8646 88.9127 27.5265 88.487 27.2865C88.0724 27.0354 87.5867 26.91 87.0302 26.91C86.4845 26.91 85.9988 27.0354 85.5734 27.2865C85.1477 27.5265 84.815 27.8703 84.5747 28.3176C84.3347 28.7541 84.2147 29.256 84.2147 29.8236V30.0854C84.2147 30.6638 84.3458 31.1822 84.6077 31.6406C84.8804 32.0879 85.2569 32.4371 85.7369 32.6882C86.2172 32.939 86.7683 33.0647 87.3902 33.0647C87.9032 33.0647 88.367 32.9774 88.7816 32.8028C89.2073 32.6282 89.5784 32.3663 89.8949 32.0171L90.7625 33.0317C90.3695 33.4901 89.8784 33.8393 89.2892 34.0796C88.7108 34.3196 88.0616 34.4396 87.3413 34.4396Z" fill="#0D9488"/>
<path d="M93.501 34.3415V25.6659H95.007V28.023L94.8597 27.4338C95.1 26.8335 95.5035 26.3751 96.0711 26.0586C96.6387 25.7421 97.3371 25.584 98.1663 25.584V27.1062C98.1009 27.0954 98.0355 27.09 97.9698 27.09C97.9155 27.09 97.8609 27.09 97.8063 27.09C96.966 27.09 96.3003 27.3408 95.8092 27.843C95.3181 28.3449 95.0727 29.0706 95.0727 30.02V34.3415H93.501Z" fill="#0D9488"/>
</svg>
