<svg width="366" height="366" viewBox="0 0 366 366" fill="none" xmlns="http://www.w3.org/2000/svg">
<rect width="366" height="366" rx="108" fill="#2E2E2E"/>
<rect x="6" y="6" width="354" height="354" rx="108" fill="#222222"/>
<path d="M189.974 156.13L191.511 157.308C199.675 163.56 206.557 171.331 211.783 180.19C219.048 192.507 222.878 206.546 222.878 220.845V270.079C222.878 280.85 218.45 291.146 210.631 298.553C195.917 312.493 173.007 312.924 157.776 299.553L157.303 299.138C148.673 291.56 143.725 280.63 143.725 269.144V220.089C143.725 219.016 142.856 218.144 141.783 218.144H90.9497C80.3544 218.144 70.1923 213.937 62.7009 206.446C47.5071 191.249 47.0527 166.758 61.6748 151.011L62.0988 150.555C69.7801 142.283 80.5605 137.581 91.8493 137.581H135.255C155.037 137.581 174.267 144.101 189.974 156.13ZM189.974 156.13L182.961 165.285" stroke="white" stroke-width="25"/>
<path d="M207.98 66.7497L208.453 67.1644V67.1667C217.083 74.7426 222.031 85.673 222.031 97.1586V146.214C222.031 147.287 222.902 148.158 223.975 148.158H274.808C285.404 148.158 295.563 152.366 303.055 159.857C318.251 175.053 318.703 199.545 304.083 215.291L303.657 215.748C295.976 224.02 285.198 228.721 273.906 228.721H230.504C210.721 228.721 191.488 222.202 175.784 210.173L174.247 208.995C166.081 202.742 159.199 194.972 153.975 186.112C146.71 173.795 142.878 159.756 142.878 145.457V96.2239C142.878 85.4528 147.308 75.1573 155.125 67.75C169.838 53.8095 192.751 53.3761 207.98 66.7497ZM207.98 66.7497L200.252 75.5508" stroke="#F9669D" stroke-width="25"/>
</svg>
