<svg width="2177" height="413" viewBox="0 0 2177 413" fill="none" xmlns="http://www.w3.org/2000/svg">
<mask id="path-1-outside-1_1201_45" maskUnits="userSpaceOnUse" x="499" y="136" width="1368" height="165" fill="black">
<rect fill="white" x="499" y="136" width="1368" height="165"/>
<path d="M684.285 229.855C681.92 244.26 677.405 256.515 669.88 266.835C655.26 287.475 629.675 299.3 590.545 299.3C572.485 299.3 556.79 296.505 543.245 291.13C516.155 280.165 500.675 257.375 500.675 219.965V218.89C500.675 201.69 504.545 187.07 512.715 175.03C528.84 150.735 557.65 137.835 594.2 137.835C610.11 137.835 623.655 140.2 636.125 144.715C661.28 154.175 677.62 172.88 683.425 202.335H644.51C640.855 181.91 624.3 170.3 594.415 170.3C558.94 170.3 537.87 184.06 537.87 219.105V219.535C537.87 252.43 557.865 266.62 592.91 266.62C627.095 266.62 641.5 253.505 644.94 229.855H684.285ZM820.718 265.76C810.613 285.325 787.823 299.085 752.133 299.085C718.163 299.085 699.458 287.69 699.458 264.04V263.825C699.458 249.42 705.478 238.67 719.023 232.435C723.108 230.5 727.623 228.995 732.568 227.49C742.673 224.91 757.293 223.19 783.738 221.685C792.983 221.04 800.078 220.61 805.023 219.75C815.128 218.245 818.568 215.45 818.568 210.075V209.86C818.568 207.065 817.708 204.485 815.343 201.905C811.258 196.96 801.583 193.52 783.738 193.52C772.988 193.52 764.818 194.165 758.798 195.885C746.328 198.68 741.168 204.7 740.093 214.59H702.468C706.553 181.695 732.998 167.29 780.513 167.29C796.638 167.29 809.753 168.795 820.718 171.59C842.433 177.61 853.613 191.37 853.613 218.245V295H823.943L820.718 265.76ZM763.098 273.285C774.063 273.285 783.523 271.35 791.908 267.695C808.893 260.385 818.998 248.345 818.998 235.875V235.015C815.773 239.315 807.173 242.325 786.963 243.4C763.313 244.475 752.563 246.195 745.898 249.42C740.738 252 738.158 255.655 738.158 260.6V260.815C738.158 268.985 745.038 273.285 763.098 273.285ZM881.655 295V171.59H913.26L917.345 205.99C924.01 183.845 939.06 170.3 967.655 170.3H983.35V205.99H966.795C953.895 205.99 944.005 207.28 937.125 210.505C923.365 216.525 918.85 229.855 918.85 254.15V295H881.655ZM1156.81 258.235C1143.48 288.765 1115.1 299.085 1074.25 299.085C1054.69 299.085 1039.21 296.29 1027.38 291.13C1003.95 280.165 994.703 260.815 994.703 235.66C994.703 223.19 997.713 212.01 1003.73 201.69C1016.2 180.62 1040.07 167.075 1077.05 167.075C1094.25 167.075 1108.44 169.655 1120.91 175.03C1145.2 185.78 1158.32 205.56 1158.32 233.295V246.41H1029.32C1033.62 262.535 1047.38 270.92 1077.26 270.92C1099.84 270.92 1110.59 266.62 1116.61 258.235H1156.81ZM1078.12 195.025C1050.82 195.025 1035.34 204.27 1030.18 220.395H1122.2C1118.11 202.335 1104.57 195.025 1078.12 195.025ZM1218.89 187.715V295H1184.06V141.705H1220.18L1313.28 245.765L1314.57 247.7V141.705H1349.18V295H1314.57L1220.4 189.865L1218.89 187.715ZM1452.84 299.085C1433.28 299.085 1417.58 296.505 1405.54 291.13C1381.89 280.81 1372 261.03 1372 234.155C1372 220.395 1375.44 208.57 1382.11 198.465C1395.65 178.255 1420.81 167.075 1453.92 167.075C1470.9 167.075 1485.09 169.655 1497.56 175.03C1522.29 185.78 1536.05 205.56 1536.05 234.155C1536.05 247.055 1533.25 258.235 1527.23 268.125C1515.62 287.69 1491.76 299.085 1452.84 299.085ZM1453.92 269.2C1486.81 269.2 1498.85 256.945 1498.85 234.155C1498.85 209.43 1485.74 196.53 1454.35 196.53C1424.03 196.53 1409.2 208.785 1409.2 234.155C1409.2 257.59 1422.53 269.2 1453.92 269.2ZM1604.73 295L1537.65 171.59H1578.07L1623.01 258.02L1669.23 171.59H1710.08L1639.35 295H1604.73ZM1832.73 265.76C1822.62 285.325 1799.83 299.085 1764.14 299.085C1730.17 299.085 1711.47 287.69 1711.47 264.04V263.825C1711.47 249.42 1717.49 238.67 1731.03 232.435C1735.12 230.5 1739.63 228.995 1744.58 227.49C1754.68 224.91 1769.3 223.19 1795.75 221.685C1804.99 221.04 1812.09 220.61 1817.03 219.75C1827.14 218.245 1830.58 215.45 1830.58 210.075V209.86C1830.58 207.065 1829.72 204.485 1827.35 201.905C1823.27 196.96 1813.59 193.52 1795.75 193.52C1785 193.52 1776.83 194.165 1770.81 195.885C1758.34 198.68 1753.18 204.7 1752.1 214.59H1714.48C1718.56 181.695 1745.01 167.29 1792.52 167.29C1808.65 167.29 1821.76 168.795 1832.73 171.59C1854.44 177.61 1865.62 191.37 1865.62 218.245V295H1835.95L1832.73 265.76ZM1775.11 273.285C1786.07 273.285 1795.53 271.35 1803.92 267.695C1820.9 260.385 1831.01 248.345 1831.01 235.875V235.015C1827.78 239.315 1819.18 242.325 1798.97 243.4C1775.32 244.475 1764.57 246.195 1757.91 249.42C1752.75 252 1750.17 255.655 1750.17 260.6V260.815C1750.17 268.985 1757.05 273.285 1775.11 273.285Z"/>
</mask>
<path d="M684.285 229.855C681.92 244.26 677.405 256.515 669.88 266.835C655.26 287.475 629.675 299.3 590.545 299.3C572.485 299.3 556.79 296.505 543.245 291.13C516.155 280.165 500.675 257.375 500.675 219.965V218.89C500.675 201.69 504.545 187.07 512.715 175.03C528.84 150.735 557.65 137.835 594.2 137.835C610.11 137.835 623.655 140.2 636.125 144.715C661.28 154.175 677.62 172.88 683.425 202.335H644.51C640.855 181.91 624.3 170.3 594.415 170.3C558.94 170.3 537.87 184.06 537.87 219.105V219.535C537.87 252.43 557.865 266.62 592.91 266.62C627.095 266.62 641.5 253.505 644.94 229.855H684.285ZM820.718 265.76C810.613 285.325 787.823 299.085 752.133 299.085C718.163 299.085 699.458 287.69 699.458 264.04V263.825C699.458 249.42 705.478 238.67 719.023 232.435C723.108 230.5 727.623 228.995 732.568 227.49C742.673 224.91 757.293 223.19 783.738 221.685C792.983 221.04 800.078 220.61 805.023 219.75C815.128 218.245 818.568 215.45 818.568 210.075V209.86C818.568 207.065 817.708 204.485 815.343 201.905C811.258 196.96 801.583 193.52 783.738 193.52C772.988 193.52 764.818 194.165 758.798 195.885C746.328 198.68 741.168 204.7 740.093 214.59H702.468C706.553 181.695 732.998 167.29 780.513 167.29C796.638 167.29 809.753 168.795 820.718 171.59C842.433 177.61 853.613 191.37 853.613 218.245V295H823.943L820.718 265.76ZM763.098 273.285C774.063 273.285 783.523 271.35 791.908 267.695C808.893 260.385 818.998 248.345 818.998 235.875V235.015C815.773 239.315 807.173 242.325 786.963 243.4C763.313 244.475 752.563 246.195 745.898 249.42C740.738 252 738.158 255.655 738.158 260.6V260.815C738.158 268.985 745.038 273.285 763.098 273.285ZM881.655 295V171.59H913.26L917.345 205.99C924.01 183.845 939.06 170.3 967.655 170.3H983.35V205.99H966.795C953.895 205.99 944.005 207.28 937.125 210.505C923.365 216.525 918.85 229.855 918.85 254.15V295H881.655ZM1156.81 258.235C1143.48 288.765 1115.1 299.085 1074.25 299.085C1054.69 299.085 1039.21 296.29 1027.38 291.13C1003.95 280.165 994.703 260.815 994.703 235.66C994.703 223.19 997.713 212.01 1003.73 201.69C1016.2 180.62 1040.07 167.075 1077.05 167.075C1094.25 167.075 1108.44 169.655 1120.91 175.03C1145.2 185.78 1158.32 205.56 1158.32 233.295V246.41H1029.32C1033.62 262.535 1047.38 270.92 1077.26 270.92C1099.84 270.92 1110.59 266.62 1116.61 258.235H1156.81ZM1078.12 195.025C1050.82 195.025 1035.34 204.27 1030.18 220.395H1122.2C1118.11 202.335 1104.57 195.025 1078.12 195.025ZM1218.89 187.715V295H1184.06V141.705H1220.18L1313.28 245.765L1314.57 247.7V141.705H1349.18V295H1314.57L1220.4 189.865L1218.89 187.715ZM1452.84 299.085C1433.28 299.085 1417.58 296.505 1405.54 291.13C1381.89 280.81 1372 261.03 1372 234.155C1372 220.395 1375.44 208.57 1382.11 198.465C1395.65 178.255 1420.81 167.075 1453.92 167.075C1470.9 167.075 1485.09 169.655 1497.56 175.03C1522.29 185.78 1536.05 205.56 1536.05 234.155C1536.05 247.055 1533.25 258.235 1527.23 268.125C1515.62 287.69 1491.76 299.085 1452.84 299.085ZM1453.92 269.2C1486.81 269.2 1498.85 256.945 1498.85 234.155C1498.85 209.43 1485.74 196.53 1454.35 196.53C1424.03 196.53 1409.2 208.785 1409.2 234.155C1409.2 257.59 1422.53 269.2 1453.92 269.2ZM1604.73 295L1537.65 171.59H1578.07L1623.01 258.02L1669.23 171.59H1710.08L1639.35 295H1604.73ZM1832.73 265.76C1822.62 285.325 1799.83 299.085 1764.14 299.085C1730.17 299.085 1711.47 287.69 1711.47 264.04V263.825C1711.47 249.42 1717.49 238.67 1731.03 232.435C1735.12 230.5 1739.63 228.995 1744.58 227.49C1754.68 224.91 1769.3 223.19 1795.75 221.685C1804.99 221.04 1812.09 220.61 1817.03 219.75C1827.14 218.245 1830.58 215.45 1830.58 210.075V209.86C1830.58 207.065 1829.72 204.485 1827.35 201.905C1823.27 196.96 1813.59 193.52 1795.75 193.52C1785 193.52 1776.83 194.165 1770.81 195.885C1758.34 198.68 1753.18 204.7 1752.1 214.59H1714.48C1718.56 181.695 1745.01 167.29 1792.52 167.29C1808.65 167.29 1821.76 168.795 1832.73 171.59C1854.44 177.61 1865.62 191.37 1865.62 218.245V295H1835.95L1832.73 265.76ZM1775.11 273.285C1786.07 273.285 1795.53 271.35 1803.92 267.695C1820.9 260.385 1831.01 248.345 1831.01 235.875V235.015C1827.78 239.315 1819.18 242.325 1798.97 243.4C1775.32 244.475 1764.57 246.195 1757.91 249.42C1752.75 252 1750.17 255.655 1750.17 260.6V260.815C1750.17 268.985 1757.05 273.285 1775.11 273.285Z" fill="white"/>
<path d="M684.285 229.855L685.272 230.017L685.463 228.855H684.285V229.855ZM669.88 266.835L669.072 266.246L669.064 266.257L669.88 266.835ZM543.245 291.13L542.87 292.057L542.876 292.059L543.245 291.13ZM512.715 175.03L513.543 175.592L513.548 175.583L512.715 175.03ZM636.125 144.715L636.477 143.779L636.465 143.775L636.125 144.715ZM683.425 202.335V203.335H684.641L684.406 202.142L683.425 202.335ZM644.51 202.335L643.526 202.511L643.673 203.335H644.51V202.335ZM644.94 229.855V228.855H644.075L643.95 229.711L644.94 229.855ZM684.285 229.855L683.298 229.693C680.952 243.986 676.482 256.083 669.072 266.246L669.88 266.835L670.688 267.424C678.328 256.947 682.888 244.534 685.272 230.017L684.285 229.855ZM669.88 266.835L669.064 266.257C654.694 286.544 629.476 298.3 590.545 298.3V299.3V300.3C629.874 300.3 655.826 288.406 670.696 267.413L669.88 266.835ZM590.545 299.3V298.3C572.588 298.3 557.021 295.521 543.614 290.201L543.245 291.13L542.876 292.059C556.559 297.489 572.382 300.3 590.545 300.3V299.3ZM543.245 291.13L543.62 290.203C530.246 284.79 519.782 276.479 512.652 264.939C505.517 253.39 501.675 238.534 501.675 219.965H500.675H499.675C499.675 238.806 503.573 254.05 510.951 265.99C518.333 277.938 529.154 286.505 542.87 292.057L543.245 291.13ZM500.675 219.965H501.675V218.89H500.675H499.675V219.965H500.675ZM500.675 218.89H501.675C501.675 201.843 505.509 187.43 513.542 175.591L512.715 175.03L511.888 174.468C503.581 186.71 499.675 201.537 499.675 218.89H500.675ZM512.715 175.03L513.548 175.583C529.436 151.645 557.879 138.835 594.2 138.835V137.835V136.835C557.421 136.835 528.244 149.825 511.882 174.477L512.715 175.03ZM594.2 137.835V138.835C610.006 138.835 623.434 141.184 635.785 145.655L636.125 144.715L636.465 143.775C623.876 139.216 610.214 136.835 594.2 136.835V137.835ZM636.125 144.715L635.773 145.651C660.593 154.985 676.704 173.401 682.444 202.528L683.425 202.335L684.406 202.142C678.536 172.359 661.967 153.365 636.477 143.779L636.125 144.715ZM683.425 202.335V201.335H644.51V202.335V203.335H683.425V202.335ZM644.51 202.335L645.494 202.159C643.622 191.697 638.426 183.44 629.847 177.822C621.297 172.223 609.473 169.3 594.415 169.3V170.3V171.3C609.242 171.3 620.638 174.182 628.751 179.495C636.834 184.788 641.743 192.548 643.526 202.511L644.51 202.335ZM594.415 170.3V169.3C576.577 169.3 562.17 172.754 552.212 180.782C542.21 188.845 536.87 201.374 536.87 219.105H537.87H538.87C538.87 201.791 544.065 189.918 553.467 182.339C562.912 174.726 576.778 171.3 594.415 171.3V170.3ZM537.87 219.105H536.87V219.535H537.87H538.87V219.105H537.87ZM537.87 219.535H536.87C536.87 236.194 541.943 248.289 551.616 256.188C561.249 264.055 575.279 267.62 592.91 267.62V266.62V265.62C575.496 265.62 562.006 262.09 552.881 254.639C543.795 247.219 538.87 235.771 538.87 219.535H537.87ZM592.91 266.62V267.62C610.11 267.62 622.507 264.324 631.055 257.906C639.631 251.467 644.184 242 645.93 229.999L644.94 229.855L643.95 229.711C642.256 241.36 637.887 250.275 629.854 256.307C621.793 262.359 609.895 265.62 592.91 265.62V266.62ZM644.94 229.855V230.855H684.285V229.855V228.855H644.94V229.855ZM820.718 265.76L821.712 265.65L821.349 262.359L819.829 265.301L820.718 265.76ZM719.023 232.435L719.441 233.343L719.451 233.339L719.023 232.435ZM732.568 227.49L732.32 226.521L732.298 226.527L732.276 226.533L732.568 227.49ZM783.738 221.685L783.794 222.683L783.807 222.683L783.738 221.685ZM805.023 219.75L804.875 218.761L804.863 218.763L804.851 218.765L805.023 219.75ZM815.343 201.905L814.572 202.542L814.588 202.562L814.605 202.581L815.343 201.905ZM758.798 195.885L759.016 196.861L759.045 196.854L759.072 196.847L758.798 195.885ZM740.093 214.59V215.59H740.99L741.087 214.698L740.093 214.59ZM702.468 214.59L701.475 214.467L701.336 215.59H702.468V214.59ZM820.718 171.59L820.985 170.626L820.975 170.624L820.965 170.621L820.718 171.59ZM853.613 295V296H854.613V295H853.613ZM823.943 295L822.949 295.11L823.047 296H823.943V295ZM791.908 267.695L791.512 266.776L791.508 266.778L791.908 267.695ZM818.998 235.015H819.998V232.015L818.198 234.415L818.998 235.015ZM786.963 243.4L787.008 244.399L787.016 244.399L786.963 243.4ZM745.898 249.42L745.462 248.52L745.45 248.526L745.898 249.42ZM820.718 265.76L819.829 265.301C809.944 284.441 787.566 298.085 752.133 298.085V299.085V300.085C788.079 300.085 811.281 286.209 821.606 266.219L820.718 265.76ZM752.133 299.085V298.085C735.23 298.085 722.289 295.245 713.602 289.593C704.985 283.987 700.458 275.554 700.458 264.04H699.458H698.458C698.458 276.176 703.283 285.266 712.511 291.269C721.669 297.228 735.066 300.085 752.133 300.085V299.085ZM699.458 264.04H700.458V263.825H699.458H698.458V264.04H699.458ZM699.458 263.825H700.458C700.458 256.762 701.933 250.663 705.016 245.585C708.095 240.513 712.822 236.39 719.441 233.343L719.023 232.435L718.604 231.527C711.679 234.715 706.622 239.085 703.306 244.547C699.993 250.005 698.458 256.483 698.458 263.825H699.458ZM719.023 232.435L719.451 233.339C723.466 231.437 727.922 229.949 732.859 228.447L732.568 227.49L732.276 226.533C727.324 228.041 722.75 229.563 718.595 231.531L719.023 232.435ZM732.568 227.49L732.815 228.459C742.817 225.905 757.35 224.188 783.794 222.683L783.738 221.685L783.681 220.687C757.235 222.192 742.528 223.915 732.32 226.521L732.568 227.49ZM783.738 221.685L783.807 222.683C793.017 222.04 800.184 221.607 805.194 220.735L805.023 219.75L804.851 218.765C799.971 219.613 792.948 220.04 783.668 220.687L783.738 221.685ZM805.023 219.75L805.17 220.739C810.255 219.982 813.847 218.88 816.176 217.17C818.598 215.392 819.568 213.024 819.568 210.075H818.568H817.568C817.568 212.501 816.817 214.218 814.993 215.558C813.076 216.965 809.895 218.013 804.875 218.761L805.023 219.75ZM818.568 210.075H819.568V209.86H818.568H817.568V210.075H818.568ZM818.568 209.86H819.568C819.568 206.816 818.615 203.995 816.08 201.229L815.343 201.905L814.605 202.581C816.8 204.975 817.568 207.314 817.568 209.86H818.568ZM815.343 201.905L816.114 201.268C813.898 198.586 810.249 196.407 804.975 194.897C799.696 193.385 792.716 192.52 783.738 192.52V193.52V194.52C792.604 194.52 799.384 195.375 804.425 196.819C809.472 198.265 812.703 200.279 814.572 202.542L815.343 201.905ZM783.738 193.52V192.52C772.971 192.52 764.684 193.163 758.523 194.923L758.798 195.885L759.072 196.847C764.951 195.167 773.004 194.52 783.738 194.52V193.52ZM758.798 195.885L758.579 194.909C752.232 196.332 747.619 198.602 744.452 201.882C741.275 205.175 739.653 209.383 739.098 214.482L740.093 214.59L741.087 214.698C741.608 209.907 743.103 206.16 745.892 203.271C748.692 200.37 752.893 198.233 759.016 196.861L758.798 195.885ZM740.093 214.59V213.59H702.468V214.59V215.59H740.093V214.59ZM702.468 214.59L703.46 214.713C705.467 198.552 712.936 187.01 725.712 179.465C738.549 171.885 756.83 168.29 780.513 168.29V167.29V166.29C756.681 166.29 737.981 169.898 724.695 177.743C711.349 185.625 703.553 197.733 701.475 214.467L702.468 214.59ZM780.513 167.29V168.29C796.578 168.29 809.606 169.79 820.471 172.559L820.718 171.59L820.965 170.621C809.899 167.8 796.698 166.29 780.513 166.29V167.29ZM820.718 171.59L820.45 172.554C831.161 175.523 839.161 180.368 844.5 187.686C849.845 195.012 852.613 204.94 852.613 218.245H853.613H854.613C854.613 204.675 851.79 194.285 846.116 186.508C840.437 178.722 831.99 173.677 820.985 170.626L820.718 171.59ZM853.613 218.245H852.613V295H853.613H854.613V218.245H853.613ZM853.613 295V294H823.943V295V296H853.613V295ZM823.943 295L824.937 294.89L821.712 265.65L820.718 265.76L819.724 265.87L822.949 295.11L823.943 295ZM763.098 273.285V274.285C774.184 274.285 783.782 272.328 792.307 268.612L791.908 267.695L791.508 266.778C783.263 270.372 773.941 272.285 763.098 272.285V273.285ZM791.908 267.695L792.303 268.614C809.461 261.229 819.998 248.92 819.998 235.875H818.998H817.998C817.998 247.77 808.324 259.541 791.512 266.776L791.908 267.695ZM818.998 235.875H819.998V235.015H818.998H817.998V235.875H818.998ZM818.998 235.015L818.198 234.415C816.776 236.31 814.068 238.055 809.079 239.454C804.103 240.849 796.985 241.865 786.91 242.401L786.963 243.4L787.016 244.399C797.151 243.859 804.437 242.833 809.62 241.38C814.79 239.93 817.994 238.02 819.798 235.615L818.998 235.015ZM786.963 243.4L786.917 242.401C763.3 243.475 752.341 245.191 745.462 248.52L745.898 249.42L746.333 250.32C752.784 247.199 763.325 245.475 787.008 244.399L786.963 243.4ZM745.898 249.42L745.45 248.526C742.764 249.869 740.682 251.525 739.272 253.552C737.855 255.589 737.158 257.942 737.158 260.6H738.158H739.158C739.158 258.313 739.751 256.366 740.914 254.694C742.084 253.012 743.871 251.551 746.345 250.314L745.898 249.42ZM738.158 260.6H737.158V260.815H738.158H739.158V260.6H738.158ZM738.158 260.815H737.158C737.158 263.001 737.619 264.987 738.656 266.723C739.694 268.46 741.268 269.881 743.389 270.998C747.589 273.212 754.028 274.285 763.098 274.285V273.285V272.285C754.107 272.285 748.076 271.208 744.321 269.229C742.464 268.25 741.19 267.064 740.373 265.697C739.556 264.33 739.158 262.714 739.158 260.815H738.158ZM881.655 295H880.655V296H881.655V295ZM881.655 171.59V170.59H880.655V171.59H881.655ZM913.26 171.59L914.253 171.472L914.148 170.59H913.26V171.59ZM917.345 205.99L916.352 206.108L918.303 206.278L917.345 205.99ZM983.35 170.3H984.35V169.3H983.35V170.3ZM983.35 205.99V206.99H984.35V205.99H983.35ZM937.125 210.505L937.526 211.421L937.538 211.416L937.549 211.41L937.125 210.505ZM918.85 295V296H919.85V295H918.85ZM881.655 295H882.655V171.59H881.655H880.655V295H881.655ZM881.655 171.59V172.59H913.26V171.59V170.59H881.655V171.59ZM913.26 171.59L912.267 171.708L916.352 206.108L917.345 205.99L918.338 205.872L914.253 171.472L913.26 171.59ZM917.345 205.99L918.303 206.278C921.591 195.351 926.921 186.633 934.878 180.639C942.833 174.647 953.517 171.3 967.655 171.3V170.3V169.3C953.198 169.3 942.059 172.726 933.675 179.042C925.291 185.357 919.764 194.484 916.387 205.702L917.345 205.99ZM967.655 170.3V171.3H983.35V170.3V169.3H967.655V170.3ZM983.35 170.3H982.35V205.99H983.35H984.35V170.3H983.35ZM983.35 205.99V204.99H966.795V205.99V206.99H983.35V205.99ZM966.795 205.99V204.99C953.865 204.99 943.789 206.277 936.701 209.6L937.125 210.505L937.549 211.41C944.221 208.283 953.925 206.99 966.795 206.99V205.99ZM937.125 210.505L936.724 209.589C929.593 212.709 924.841 217.749 921.899 225.103C918.979 232.404 917.85 241.964 917.85 254.15H918.85H919.85C919.85 242.041 920.979 232.788 923.756 225.846C926.512 218.956 930.897 214.321 937.526 211.421L937.125 210.505ZM918.85 254.15H917.85V295H918.85H919.85V254.15H918.85ZM918.85 295V294H881.655V295V296H918.85V295ZM1156.81 258.235L1157.73 258.635L1158.34 257.235H1156.81V258.235ZM1027.38 291.13L1026.96 292.036L1026.97 292.041L1026.98 292.047L1027.38 291.13ZM1003.73 201.69L1002.87 201.181L1002.87 201.186L1003.73 201.69ZM1120.91 175.03L1121.31 174.115L1121.3 174.112L1120.91 175.03ZM1158.32 246.41V247.41H1159.32V246.41H1158.32ZM1029.32 246.41V245.41H1028.02L1028.35 246.668L1029.32 246.41ZM1116.61 258.235V257.235H1116.09L1115.8 257.652L1116.61 258.235ZM1030.18 220.395L1029.23 220.09L1028.81 221.395H1030.18V220.395ZM1122.2 220.395V221.395H1123.45L1123.17 220.174L1122.2 220.395ZM1156.81 258.235L1155.9 257.835C1149.33 272.873 1139.08 282.906 1125.43 289.201C1111.75 295.511 1094.61 298.085 1074.25 298.085V299.085V300.085C1094.75 300.085 1112.22 297.499 1126.27 291.017C1140.36 284.519 1150.97 274.127 1157.73 258.635L1156.81 258.235ZM1074.25 299.085V298.085C1054.77 298.085 1039.44 295.301 1027.78 290.213L1027.38 291.13L1026.98 292.047C1038.97 297.279 1054.6 300.085 1074.25 300.085V299.085ZM1027.38 291.13L1027.81 290.224C1016.26 284.821 1008.26 277.379 1003.13 268.227C997.993 259.064 995.703 248.119 995.703 235.66H994.703H993.703C993.703 248.356 996.036 259.663 1001.38 269.205C1006.74 278.759 1015.07 286.474 1026.96 292.036L1027.38 291.13ZM994.703 235.66H995.703C995.703 223.362 998.668 212.357 1004.6 202.194L1003.73 201.69L1002.87 201.186C996.758 211.663 993.703 223.018 993.703 235.66H994.703ZM1003.73 201.69L1004.59 202.199C1016.84 181.506 1040.33 168.075 1077.05 168.075V167.075V166.075C1039.81 166.075 1015.57 179.734 1002.87 201.181L1003.73 201.69ZM1077.05 167.075V168.075C1094.15 168.075 1108.2 170.639 1120.51 175.948L1120.91 175.03L1121.3 174.112C1108.68 168.671 1094.35 166.075 1077.05 166.075V167.075ZM1120.91 175.03L1120.5 175.944C1132.5 181.253 1141.69 188.768 1147.88 198.337C1154.08 207.906 1157.32 219.589 1157.32 233.295H1158.32H1159.32C1159.32 219.266 1156 207.192 1149.56 197.25C1143.13 187.307 1133.61 179.557 1121.31 174.116L1120.91 175.03ZM1158.32 233.295H1157.32V246.41H1158.32H1159.32V233.295H1158.32ZM1158.32 246.41V245.41H1029.32V246.41V247.41H1158.32V246.41ZM1029.32 246.41L1028.35 246.668C1030.57 254.98 1035.25 261.344 1043.23 265.594C1051.15 269.818 1062.25 271.92 1077.26 271.92V270.92V269.92C1062.39 269.92 1051.67 267.83 1044.17 263.829C1036.71 259.856 1032.37 253.965 1030.28 246.152L1029.32 246.41ZM1077.26 270.92V271.92C1099.91 271.92 1111.1 267.618 1117.42 258.818L1116.61 258.235L1115.8 257.652C1110.07 265.622 1099.77 269.92 1077.26 269.92V270.92ZM1116.61 258.235V259.235H1156.81V258.235V257.235H1116.61V258.235ZM1078.12 195.025V194.025C1064.37 194.025 1053.49 196.352 1045.37 200.785C1037.22 205.233 1031.89 211.779 1029.23 220.09L1030.18 220.395L1031.13 220.7C1033.63 212.886 1038.62 206.747 1046.33 202.541C1054.06 198.321 1064.57 196.025 1078.12 196.025V195.025ZM1030.18 220.395V221.395H1122.2V220.395V219.395H1030.18V220.395ZM1122.2 220.395L1123.17 220.174C1121.08 210.911 1116.52 204.311 1109.04 200.068C1101.61 195.857 1091.41 194.025 1078.12 194.025V195.025V196.025C1091.28 196.025 1101.07 197.848 1108.05 201.807C1114.98 205.734 1119.23 211.819 1121.22 220.616L1122.2 220.395ZM1218.89 187.715L1219.71 187.142L1217.89 184.543V187.715H1218.89ZM1218.89 295V296H1219.89V295H1218.89ZM1184.06 295H1183.06V296H1184.06V295ZM1184.06 141.705V140.705H1183.06V141.705H1184.06ZM1220.18 141.705L1220.93 141.038L1220.63 140.705H1220.18V141.705ZM1313.28 245.765L1314.11 245.21L1314.07 245.151L1314.02 245.098L1313.28 245.765ZM1314.57 247.7L1313.74 248.255L1315.57 251.003V247.7H1314.57ZM1314.57 141.705V140.705H1313.57V141.705H1314.57ZM1349.18 141.705H1350.18V140.705H1349.18V141.705ZM1349.18 295V296H1350.18V295H1349.18ZM1314.57 295L1313.82 295.667L1314.12 296H1314.57V295ZM1220.4 189.865L1219.58 190.438L1219.61 190.488L1219.65 190.532L1220.4 189.865ZM1218.89 187.715H1217.89V295H1218.89H1219.89V187.715H1218.89ZM1218.89 295V294H1184.06V295V296H1218.89V295ZM1184.06 295H1185.06V141.705H1184.06H1183.06V295H1184.06ZM1184.06 141.705V142.705H1220.18V141.705V140.705H1184.06V141.705ZM1220.18 141.705L1219.44 142.372L1312.53 246.432L1313.28 245.765L1314.02 245.098L1220.93 141.038L1220.18 141.705ZM1313.28 245.765L1312.45 246.32L1313.74 248.255L1314.57 247.7L1315.4 247.145L1314.11 245.21L1313.28 245.765ZM1314.57 247.7H1315.57V141.705H1314.57H1313.57V247.7H1314.57ZM1314.57 141.705V142.705H1349.18V141.705V140.705H1314.57V141.705ZM1349.18 141.705H1348.18V295H1349.18H1350.18V141.705H1349.18ZM1349.18 295V294H1314.57V295V296H1349.18V295ZM1314.57 295L1315.31 294.333L1221.14 189.198L1220.4 189.865L1219.65 190.532L1313.82 295.667L1314.57 295ZM1220.4 189.865L1221.22 189.292L1219.71 187.142L1218.89 187.715L1218.08 188.288L1219.58 190.438L1220.4 189.865ZM1405.54 291.13L1405.95 290.217L1405.94 290.213L1405.54 291.13ZM1382.11 198.465L1381.28 197.908L1381.27 197.914L1382.11 198.465ZM1497.56 175.03L1497.96 174.113L1497.96 174.112L1497.56 175.03ZM1527.23 268.125L1526.38 267.605L1526.37 267.615L1527.23 268.125ZM1452.84 299.085V298.085C1433.35 298.085 1417.81 295.513 1405.95 290.217L1405.54 291.13L1405.14 292.043C1417.35 297.497 1433.2 300.085 1452.84 300.085V299.085ZM1405.54 291.13L1405.94 290.213C1394.3 285.132 1386.09 277.747 1380.77 268.358C1375.45 258.956 1373 247.475 1373 234.155H1372H1371C1371 247.71 1373.5 259.557 1379.03 269.343C1384.58 279.143 1393.14 286.808 1405.14 292.047L1405.54 291.13ZM1372 234.155H1373C1373 220.571 1376.4 208.941 1382.94 199.016L1382.11 198.465L1381.27 197.914C1374.49 208.199 1371 220.219 1371 234.155H1372ZM1382.11 198.465L1382.94 199.022C1396.24 179.178 1421.02 168.075 1453.92 168.075V167.075V166.075C1420.6 166.075 1395.07 177.332 1381.28 197.908L1382.11 198.465ZM1453.92 167.075V168.075C1470.8 168.075 1484.85 170.639 1497.17 175.948L1497.56 175.03L1497.96 174.112C1485.34 168.671 1471.01 166.075 1453.92 166.075V167.075ZM1497.56 175.03L1497.16 175.947C1509.38 181.258 1518.84 188.777 1525.24 198.453C1531.65 208.128 1535.05 220.022 1535.05 234.155H1536.05H1537.05C1537.05 219.693 1533.57 207.4 1526.91 197.349C1520.26 187.298 1510.47 179.552 1497.96 174.113L1497.56 175.03ZM1536.05 234.155H1535.05C1535.05 246.903 1532.29 257.896 1526.38 267.605L1527.23 268.125L1528.09 268.645C1534.22 258.574 1537.05 247.207 1537.05 234.155H1536.05ZM1527.23 268.125L1526.37 267.615C1515.02 286.745 1491.59 298.085 1452.84 298.085V299.085V300.085C1491.92 300.085 1516.22 288.635 1528.09 268.635L1527.23 268.125ZM1453.92 269.2V270.2C1470.45 270.2 1481.97 267.126 1489.36 260.993C1496.79 254.823 1499.85 245.723 1499.85 234.155H1498.85H1497.85C1497.85 245.377 1494.89 253.799 1488.08 259.454C1481.23 265.146 1470.28 268.2 1453.92 268.2V269.2ZM1498.85 234.155H1499.85C1499.85 221.621 1496.52 211.89 1489.03 205.319C1481.57 198.773 1470.15 195.53 1454.35 195.53V196.53V197.53C1469.93 197.53 1480.77 200.737 1487.71 206.823C1494.62 212.883 1497.85 221.964 1497.85 234.155H1498.85ZM1454.35 196.53V195.53C1439.08 195.53 1427.52 198.611 1419.77 205.06C1411.97 211.539 1408.2 221.27 1408.2 234.155H1409.2H1410.2C1410.2 221.67 1413.84 212.588 1421.04 206.598C1428.29 200.576 1439.3 197.53 1454.35 197.53V196.53ZM1409.2 234.155H1408.2C1408.2 246.066 1411.59 255.164 1419.16 261.245C1426.68 267.287 1438.13 270.2 1453.92 270.2V269.2V268.2C1438.31 268.2 1427.41 265.308 1420.41 259.686C1413.47 254.103 1410.2 245.679 1410.2 234.155H1409.2ZM1604.73 295L1603.85 295.478L1604.14 296H1604.73V295ZM1537.65 171.59V170.59H1535.97L1536.77 172.068L1537.65 171.59ZM1578.07 171.59L1578.96 171.129L1578.68 170.59H1578.07V171.59ZM1623.01 258.02L1622.12 258.481L1622.99 260.164L1623.89 258.492L1623.01 258.02ZM1669.23 171.59V170.59H1668.63L1668.35 171.118L1669.23 171.59ZM1710.08 171.59L1710.95 172.087L1711.81 170.59H1710.08V171.59ZM1639.35 295V296H1639.92L1640.21 295.497L1639.35 295ZM1604.73 295L1605.61 294.522L1538.53 171.112L1537.65 171.59L1536.77 172.068L1603.85 295.478L1604.73 295ZM1537.65 171.59V172.59H1578.07V171.59V170.59H1537.65V171.59ZM1578.07 171.59L1577.18 172.051L1622.12 258.481L1623.01 258.02L1623.89 257.559L1578.96 171.129L1578.07 171.59ZM1623.01 258.02L1623.89 258.492L1670.11 172.062L1669.23 171.59L1668.35 171.118L1622.12 257.548L1623.01 258.02ZM1669.23 171.59V172.59H1710.08V171.59V170.59H1669.23V171.59ZM1710.08 171.59L1709.21 171.093L1638.48 294.503L1639.35 295L1640.21 295.497L1710.95 172.087L1710.08 171.59ZM1639.35 295V294H1604.73V295V296H1639.35V295ZM1832.73 265.76L1833.72 265.65L1833.36 262.359L1831.84 265.301L1832.73 265.76ZM1731.03 232.435L1731.45 233.343L1731.46 233.339L1731.03 232.435ZM1744.58 227.49L1744.33 226.521L1744.31 226.527L1744.29 226.533L1744.58 227.49ZM1795.75 221.685L1795.81 222.683L1795.82 222.683L1795.75 221.685ZM1817.03 219.75L1816.89 218.761L1816.88 218.763L1816.86 218.765L1817.03 219.75ZM1827.35 201.905L1826.58 202.542L1826.6 202.562L1826.62 202.581L1827.35 201.905ZM1770.81 195.885L1771.03 196.861L1771.06 196.854L1771.08 196.847L1770.81 195.885ZM1752.1 214.59V215.59H1753L1753.1 214.698L1752.1 214.59ZM1714.48 214.59L1713.49 214.467L1713.35 215.59H1714.48V214.59ZM1832.73 171.59L1833 170.626L1832.99 170.624L1832.98 170.621L1832.73 171.59ZM1865.62 295V296H1866.62V295H1865.62ZM1835.95 295L1834.96 295.11L1835.06 296H1835.95V295ZM1803.92 267.695L1803.52 266.776L1803.52 266.778L1803.92 267.695ZM1831.01 235.015H1832.01V232.015L1830.21 234.415L1831.01 235.015ZM1798.97 243.4L1799.02 244.399L1799.03 244.399L1798.97 243.4ZM1757.91 249.42L1757.47 248.52L1757.46 248.526L1757.91 249.42ZM1832.73 265.76L1831.84 265.301C1821.96 284.441 1799.58 298.085 1764.14 298.085V299.085V300.085C1800.09 300.085 1823.29 286.209 1833.62 266.219L1832.73 265.76ZM1764.14 299.085V298.085C1747.24 298.085 1734.3 295.245 1725.61 289.593C1717 283.987 1712.47 275.554 1712.47 264.04H1711.47H1710.47C1710.47 276.176 1715.29 285.266 1724.52 291.269C1733.68 297.228 1747.08 300.085 1764.14 300.085V299.085ZM1711.47 264.04H1712.47V263.825H1711.47H1710.47V264.04H1711.47ZM1711.47 263.825H1712.47C1712.47 256.762 1713.94 250.663 1717.03 245.585C1720.11 240.513 1724.83 236.39 1731.45 233.343L1731.03 232.435L1730.62 231.527C1723.69 234.715 1718.63 239.085 1715.32 244.547C1712 250.005 1710.47 256.483 1710.47 263.825H1711.47ZM1731.03 232.435L1731.46 233.339C1735.48 231.437 1739.93 229.949 1744.87 228.447L1744.58 227.49L1744.29 226.533C1739.34 228.041 1734.76 229.563 1730.61 231.531L1731.03 232.435ZM1744.58 227.49L1744.83 228.459C1754.83 225.905 1769.36 224.188 1795.81 222.683L1795.75 221.685L1795.69 220.687C1769.25 222.192 1754.54 223.915 1744.33 226.521L1744.58 227.49ZM1795.75 221.685L1795.82 222.683C1805.03 222.04 1812.2 221.607 1817.21 220.735L1817.03 219.75L1816.86 218.765C1811.98 219.613 1804.96 220.04 1795.68 220.687L1795.75 221.685ZM1817.03 219.75L1817.18 220.739C1822.27 219.982 1825.86 218.88 1828.19 217.17C1830.61 215.392 1831.58 213.024 1831.58 210.075H1830.58H1829.58C1829.58 212.501 1828.83 214.218 1827 215.558C1825.09 216.965 1821.91 218.013 1816.89 218.761L1817.03 219.75ZM1830.58 210.075H1831.58V209.86H1830.58H1829.58V210.075H1830.58ZM1830.58 209.86H1831.58C1831.58 206.816 1830.63 203.995 1828.09 201.229L1827.35 201.905L1826.62 202.581C1828.81 204.975 1829.58 207.314 1829.58 209.86H1830.58ZM1827.35 201.905L1828.13 201.268C1825.91 198.586 1822.26 196.407 1816.99 194.897C1811.71 193.385 1804.73 192.52 1795.75 192.52V193.52V194.52C1804.62 194.52 1811.4 195.375 1816.44 196.819C1821.48 198.265 1824.71 200.279 1826.58 202.542L1827.35 201.905ZM1795.75 193.52V192.52C1784.98 192.52 1776.7 193.163 1770.53 194.923L1770.81 195.885L1771.08 196.847C1776.96 195.167 1785.02 194.52 1795.75 194.52V193.52ZM1770.81 195.885L1770.59 194.909C1764.24 196.332 1759.63 198.602 1756.46 201.882C1753.29 205.175 1751.66 209.383 1751.11 214.482L1752.1 214.59L1753.1 214.698C1753.62 209.907 1755.11 206.16 1757.9 203.271C1760.7 200.37 1764.9 198.233 1771.03 196.861L1770.81 195.885ZM1752.1 214.59V213.59H1714.48V214.59V215.59H1752.1V214.59ZM1714.48 214.59L1715.47 214.713C1717.48 198.552 1724.95 187.01 1737.72 179.465C1750.56 171.885 1768.84 168.29 1792.52 168.29V167.29V166.29C1768.69 166.29 1749.99 169.898 1736.71 177.743C1723.36 185.625 1715.56 197.733 1713.49 214.467L1714.48 214.59ZM1792.52 167.29V168.29C1808.59 168.29 1821.62 169.79 1832.48 172.559L1832.73 171.59L1832.98 170.621C1821.91 167.8 1808.71 166.29 1792.52 166.29V167.29ZM1832.73 171.59L1832.46 172.554C1843.17 175.523 1851.17 180.368 1856.51 187.686C1861.86 195.012 1864.62 204.94 1864.62 218.245H1865.62H1866.62C1866.62 204.675 1863.8 194.285 1858.13 186.508C1852.45 178.722 1844 173.677 1833 170.626L1832.73 171.59ZM1865.62 218.245H1864.62V295H1865.62H1866.62V218.245H1865.62ZM1865.62 295V294H1835.95V295V296H1865.62V295ZM1835.95 295L1836.95 294.89L1833.72 265.65L1832.73 265.76L1831.74 265.87L1834.96 295.11L1835.95 295ZM1775.11 273.285V274.285C1786.2 274.285 1795.79 272.328 1804.32 268.612L1803.92 267.695L1803.52 266.778C1795.27 270.372 1785.95 272.285 1775.11 272.285V273.285ZM1803.92 267.695L1804.31 268.614C1821.47 261.229 1832.01 248.92 1832.01 235.875H1831.01H1830.01C1830.01 247.77 1820.34 259.541 1803.52 266.776L1803.92 267.695ZM1831.01 235.875H1832.01V235.015H1831.01H1830.01V235.875H1831.01ZM1831.01 235.015L1830.21 234.415C1828.79 236.31 1826.08 238.055 1821.09 239.454C1816.11 240.849 1809 241.865 1798.92 242.401L1798.97 243.4L1799.03 244.399C1809.16 243.859 1816.45 242.833 1821.63 241.38C1826.8 239.93 1830.01 238.02 1831.81 235.615L1831.01 235.015ZM1798.97 243.4L1798.93 242.401C1775.31 243.475 1764.35 245.191 1757.47 248.52L1757.91 249.42L1758.34 250.32C1764.8 247.199 1775.34 245.475 1799.02 244.399L1798.97 243.4ZM1757.91 249.42L1757.46 248.526C1754.78 249.869 1752.69 251.525 1751.28 253.552C1749.87 255.589 1749.17 257.942 1749.17 260.6H1750.17H1751.17C1751.17 258.313 1751.76 256.366 1752.93 254.694C1754.1 253.012 1755.88 251.551 1758.36 250.314L1757.91 249.42ZM1750.17 260.6H1749.17V260.815H1750.17H1751.17V260.6H1750.17ZM1750.17 260.815H1749.17C1749.17 263.001 1749.63 264.987 1750.67 266.723C1751.71 268.46 1753.28 269.881 1755.4 270.998C1759.6 273.212 1766.04 274.285 1775.11 274.285V273.285V272.285C1766.12 272.285 1760.09 271.208 1756.33 269.229C1754.48 268.25 1753.2 267.064 1752.39 265.697C1751.57 264.33 1751.17 262.714 1751.17 260.815H1750.17Z" fill="black" mask="url(#path-1-outside-1_1201_45)"/>
<rect x="48" y="24" width="366" height="366" rx="108" fill="#2E2E2E"/>
<rect x="54" y="30" width="354" height="354" rx="108" fill="#222222"/>
<mask id="mask0_1201_45" style="mask-type:luminance" maskUnits="userSpaceOnUse" x="195" y="89" width="154" height="154">
<path d="M195.775 89.8047H348.577V242.533H195.775V89.8047Z" fill="white"/>
</mask>
<g mask="url(#mask0_1201_45)">
<path d="M348.557 207.228C348.557 226.712 332.788 242.481 313.305 242.481H241.107C216.151 242.481 195.886 222.216 195.886 197.258V125.058C195.886 105.574 211.655 89.8047 231.138 89.8047C250.621 89.8047 266.39 105.574 266.39 125.058V171.975H313.305C332.788 171.975 348.557 187.809 348.557 207.228Z" fill="#67DCFF"/>
</g>
<mask id="mask1_1201_45" style="mask-type:luminance" maskUnits="userSpaceOnUse" x="113" y="171" width="154" height="154">
<path d="M113.423 171.44H266.225V324.195H113.423V171.44Z" fill="white"/>
</mask>
<g mask="url(#mask1_1201_45)">
<path d="M113.458 206.772C113.458 187.288 129.227 171.519 148.71 171.519H220.908C245.864 171.519 266.129 191.785 266.129 216.742V288.942C266.129 308.426 250.36 324.195 230.877 324.195C211.394 324.195 195.625 308.426 195.625 288.942V242.025H148.71C129.227 242.025 113.458 226.255 113.458 206.772Z" fill="#587DFF"/>
</g>
<path d="M266.129 216.742V242.481H241.107C216.151 242.481 195.886 222.216 195.886 197.258V171.519H220.908C245.864 171.519 266.129 191.785 266.129 216.742Z" fill="#2720FF"/>
</svg>
