<svg width="2177" height="413" viewBox="0 0 2177 413" fill="none" xmlns="http://www.w3.org/2000/svg">
<mask id="path-1-outside-1_1201_55" maskUnits="userSpaceOnUse" x="460" y="137" width="1450" height="174" fill="black">
<rect fill="white" x="460" y="137" width="1450" height="174"/>
<path d="M655.972 235.916C653.464 251.192 648.676 264.188 640.696 275.132C625.192 297.02 598.06 309.56 556.564 309.56C537.412 309.56 520.768 306.596 506.404 300.896C477.676 289.268 461.26 265.1 461.26 225.428V224.288C461.26 206.048 465.364 190.544 474.028 177.776C491.128 152.012 521.68 138.332 560.44 138.332C577.312 138.332 591.676 140.84 604.9 145.628C631.576 155.66 648.904 175.496 655.06 206.732H613.792C609.916 185.072 592.36 172.76 560.668 172.76C523.048 172.76 500.704 187.352 500.704 224.516V224.972C500.704 259.856 521.908 274.904 559.072 274.904C595.324 274.904 610.6 260.996 614.248 235.916H655.972ZM800.654 273.992C789.938 294.74 765.77 309.332 727.922 309.332C691.898 309.332 672.062 297.248 672.062 272.168V271.94C672.062 256.664 678.446 245.264 692.81 238.652C697.142 236.6 701.93 235.004 707.174 233.408C717.89 230.672 733.394 228.848 761.438 227.252C771.242 226.568 778.766 226.112 784.01 225.2C794.726 223.604 798.374 220.64 798.374 214.94V214.712C798.374 211.748 797.462 209.012 794.954 206.276C790.622 201.032 780.362 197.384 761.438 197.384C750.038 197.384 741.374 198.068 734.99 199.892C721.766 202.856 716.294 209.24 715.154 219.728H675.254C679.586 184.844 707.63 169.568 758.018 169.568C775.118 169.568 789.026 171.164 800.654 174.128C823.682 180.512 835.538 195.104 835.538 223.604V305H804.074L800.654 273.992ZM739.55 281.972C751.178 281.972 761.21 279.92 770.102 276.044C788.114 268.292 798.83 255.524 798.83 242.3V241.388C795.41 245.948 786.29 249.14 764.858 250.28C739.778 251.42 728.378 253.244 721.31 256.664C715.838 259.4 713.102 263.276 713.102 268.52V268.748C713.102 277.412 720.398 281.972 739.55 281.972ZM865.276 305V174.128H898.792L903.124 210.608C910.192 187.124 926.152 172.76 956.476 172.76H973.12V210.608H955.564C941.884 210.608 931.396 211.976 924.1 215.396C909.508 221.78 904.72 235.916 904.72 261.68V305H865.276ZM1157.07 266.012C1142.94 298.388 1112.84 309.332 1069.52 309.332C1048.77 309.332 1032.36 306.368 1019.82 300.896C994.963 289.268 985.159 268.748 985.159 242.072C985.159 228.848 988.351 216.992 994.735 206.048C1007.96 183.704 1033.27 169.34 1072.48 169.34C1090.72 169.34 1105.77 172.076 1119 177.776C1144.76 189.176 1158.67 210.152 1158.67 239.564V253.472H1021.87C1026.43 270.572 1041.02 279.464 1072.71 279.464C1096.65 279.464 1108.05 274.904 1114.44 266.012H1157.07ZM1073.62 198.98C1044.67 198.98 1028.25 208.784 1022.78 225.884H1120.36C1116.03 206.732 1101.67 198.98 1073.62 198.98ZM1222.91 191.228V305H1185.97V142.436H1224.27L1323 252.788L1324.37 254.84V142.436H1361.07V305H1324.37L1224.5 193.508L1222.91 191.228ZM1471 309.332C1450.25 309.332 1433.61 306.596 1420.84 300.896C1395.76 289.952 1385.27 268.976 1385.27 240.476C1385.27 225.884 1388.92 213.344 1395.99 202.628C1410.35 181.196 1437.03 169.34 1472.14 169.34C1490.15 169.34 1505.2 172.076 1518.42 177.776C1544.64 189.176 1559.24 210.152 1559.24 240.476C1559.24 254.156 1556.27 266.012 1549.89 276.5C1537.58 297.248 1512.27 309.332 1471 309.332ZM1472.14 277.64C1507.02 277.64 1519.79 264.644 1519.79 240.476C1519.79 214.256 1505.88 200.576 1472.6 200.576C1440.45 200.576 1424.72 213.572 1424.72 240.476C1424.72 265.328 1438.85 277.64 1472.14 277.64ZM1632.07 305L1560.94 174.128H1603.8L1651.45 265.784L1700.47 174.128H1743.79L1668.78 305H1632.07ZM1873.86 273.992C1863.14 294.74 1838.97 309.332 1801.13 309.332C1765.1 309.332 1745.27 297.248 1745.27 272.168V271.94C1745.27 256.664 1751.65 245.264 1766.01 238.652C1770.35 236.6 1775.13 235.004 1780.38 233.408C1791.09 230.672 1806.6 228.848 1834.64 227.252C1844.45 226.568 1851.97 226.112 1857.21 225.2C1867.93 223.604 1871.58 220.64 1871.58 214.94V214.712C1871.58 211.748 1870.67 209.012 1868.16 206.276C1863.83 201.032 1853.57 197.384 1834.64 197.384C1823.24 197.384 1814.58 198.068 1808.19 199.892C1794.97 202.856 1789.5 209.24 1788.36 219.728H1748.46C1752.79 184.844 1780.83 169.568 1831.22 169.568C1848.32 169.568 1862.23 171.164 1873.86 174.128C1896.89 180.512 1908.74 195.104 1908.74 223.604V305H1877.28L1873.86 273.992ZM1812.75 281.972C1824.38 281.972 1834.41 279.92 1843.31 276.044C1861.32 268.292 1872.03 255.524 1872.03 242.3V241.388C1868.61 245.948 1859.49 249.14 1838.06 250.28C1812.98 251.42 1801.58 253.244 1794.51 256.664C1789.04 259.4 1786.31 263.276 1786.31 268.52V268.748C1786.31 277.412 1793.6 281.972 1812.75 281.972Z"/>
</mask>
<path d="M655.972 235.916C653.464 251.192 648.676 264.188 640.696 275.132C625.192 297.02 598.06 309.56 556.564 309.56C537.412 309.56 520.768 306.596 506.404 300.896C477.676 289.268 461.26 265.1 461.26 225.428V224.288C461.26 206.048 465.364 190.544 474.028 177.776C491.128 152.012 521.68 138.332 560.44 138.332C577.312 138.332 591.676 140.84 604.9 145.628C631.576 155.66 648.904 175.496 655.06 206.732H613.792C609.916 185.072 592.36 172.76 560.668 172.76C523.048 172.76 500.704 187.352 500.704 224.516V224.972C500.704 259.856 521.908 274.904 559.072 274.904C595.324 274.904 610.6 260.996 614.248 235.916H655.972ZM800.654 273.992C789.938 294.74 765.77 309.332 727.922 309.332C691.898 309.332 672.062 297.248 672.062 272.168V271.94C672.062 256.664 678.446 245.264 692.81 238.652C697.142 236.6 701.93 235.004 707.174 233.408C717.89 230.672 733.394 228.848 761.438 227.252C771.242 226.568 778.766 226.112 784.01 225.2C794.726 223.604 798.374 220.64 798.374 214.94V214.712C798.374 211.748 797.462 209.012 794.954 206.276C790.622 201.032 780.362 197.384 761.438 197.384C750.038 197.384 741.374 198.068 734.99 199.892C721.766 202.856 716.294 209.24 715.154 219.728H675.254C679.586 184.844 707.63 169.568 758.018 169.568C775.118 169.568 789.026 171.164 800.654 174.128C823.682 180.512 835.538 195.104 835.538 223.604V305H804.074L800.654 273.992ZM739.55 281.972C751.178 281.972 761.21 279.92 770.102 276.044C788.114 268.292 798.83 255.524 798.83 242.3V241.388C795.41 245.948 786.29 249.14 764.858 250.28C739.778 251.42 728.378 253.244 721.31 256.664C715.838 259.4 713.102 263.276 713.102 268.52V268.748C713.102 277.412 720.398 281.972 739.55 281.972ZM865.276 305V174.128H898.792L903.124 210.608C910.192 187.124 926.152 172.76 956.476 172.76H973.12V210.608H955.564C941.884 210.608 931.396 211.976 924.1 215.396C909.508 221.78 904.72 235.916 904.72 261.68V305H865.276ZM1157.07 266.012C1142.94 298.388 1112.84 309.332 1069.52 309.332C1048.77 309.332 1032.36 306.368 1019.82 300.896C994.963 289.268 985.159 268.748 985.159 242.072C985.159 228.848 988.351 216.992 994.735 206.048C1007.96 183.704 1033.27 169.34 1072.48 169.34C1090.72 169.34 1105.77 172.076 1119 177.776C1144.76 189.176 1158.67 210.152 1158.67 239.564V253.472H1021.87C1026.43 270.572 1041.02 279.464 1072.71 279.464C1096.65 279.464 1108.05 274.904 1114.44 266.012H1157.07ZM1073.62 198.98C1044.67 198.98 1028.25 208.784 1022.78 225.884H1120.36C1116.03 206.732 1101.67 198.98 1073.62 198.98ZM1222.91 191.228V305H1185.97V142.436H1224.27L1323 252.788L1324.37 254.84V142.436H1361.07V305H1324.37L1224.5 193.508L1222.91 191.228ZM1471 309.332C1450.25 309.332 1433.61 306.596 1420.84 300.896C1395.76 289.952 1385.27 268.976 1385.27 240.476C1385.27 225.884 1388.92 213.344 1395.99 202.628C1410.35 181.196 1437.03 169.34 1472.14 169.34C1490.15 169.34 1505.2 172.076 1518.42 177.776C1544.64 189.176 1559.24 210.152 1559.24 240.476C1559.24 254.156 1556.27 266.012 1549.89 276.5C1537.58 297.248 1512.27 309.332 1471 309.332ZM1472.14 277.64C1507.02 277.64 1519.79 264.644 1519.79 240.476C1519.79 214.256 1505.88 200.576 1472.6 200.576C1440.45 200.576 1424.72 213.572 1424.72 240.476C1424.72 265.328 1438.85 277.64 1472.14 277.64ZM1632.07 305L1560.94 174.128H1603.8L1651.45 265.784L1700.47 174.128H1743.79L1668.78 305H1632.07ZM1873.86 273.992C1863.14 294.74 1838.97 309.332 1801.13 309.332C1765.1 309.332 1745.27 297.248 1745.27 272.168V271.94C1745.27 256.664 1751.65 245.264 1766.01 238.652C1770.35 236.6 1775.13 235.004 1780.38 233.408C1791.09 230.672 1806.6 228.848 1834.64 227.252C1844.45 226.568 1851.97 226.112 1857.21 225.2C1867.93 223.604 1871.58 220.64 1871.58 214.94V214.712C1871.58 211.748 1870.67 209.012 1868.16 206.276C1863.83 201.032 1853.57 197.384 1834.64 197.384C1823.24 197.384 1814.58 198.068 1808.19 199.892C1794.97 202.856 1789.5 209.24 1788.36 219.728H1748.46C1752.79 184.844 1780.83 169.568 1831.22 169.568C1848.32 169.568 1862.23 171.164 1873.86 174.128C1896.89 180.512 1908.74 195.104 1908.74 223.604V305H1877.28L1873.86 273.992ZM1812.75 281.972C1824.38 281.972 1834.41 279.92 1843.31 276.044C1861.32 268.292 1872.03 255.524 1872.03 242.3V241.388C1868.61 245.948 1859.49 249.14 1838.06 250.28C1812.98 251.42 1801.58 253.244 1794.51 256.664C1789.04 259.4 1786.31 263.276 1786.31 268.52V268.748C1786.31 277.412 1793.6 281.972 1812.75 281.972Z" fill="white"/>
<path d="M655.972 235.916L656.959 236.078L657.15 234.916H655.972V235.916ZM640.696 275.132L639.888 274.543L639.88 274.554L640.696 275.132ZM506.404 300.896L506.029 301.823L506.035 301.825L506.404 300.896ZM474.028 177.776L474.856 178.338L474.861 178.329L474.028 177.776ZM604.9 145.628L605.252 144.692L605.24 144.688L604.9 145.628ZM655.06 206.732V207.732H656.276L656.041 206.539L655.06 206.732ZM613.792 206.732L612.808 206.908L612.955 207.732H613.792V206.732ZM614.248 235.916V234.916H613.383L613.258 235.772L614.248 235.916ZM655.972 235.916L654.985 235.754C652.496 250.918 647.753 263.756 639.888 274.543L640.696 275.132L641.504 275.721C649.599 264.62 654.432 251.466 656.959 236.078L655.972 235.916ZM640.696 275.132L639.88 274.554C624.626 296.089 597.861 308.56 556.564 308.56V309.56V310.56C598.259 310.56 625.758 297.951 641.512 275.71L640.696 275.132ZM556.564 309.56V308.56C537.515 308.56 520.999 305.612 506.773 299.967L506.404 300.896L506.035 301.825C520.537 307.58 537.309 310.56 556.564 310.56V309.56ZM506.404 300.896L506.779 299.969C492.586 294.224 481.479 285.403 473.91 273.153C466.336 260.894 462.26 245.128 462.26 225.428H461.26H460.26C460.26 245.4 464.392 261.554 472.208 274.204C480.029 286.863 491.494 295.94 506.029 301.823L506.404 300.896ZM461.26 225.428H462.26V224.288H461.26H460.26V225.428H461.26ZM461.26 224.288H462.26C462.26 206.201 466.328 190.904 474.855 178.337L474.028 177.776L473.201 177.214C464.4 190.184 460.26 205.895 460.26 224.288H461.26ZM474.028 177.776L474.861 178.329C491.724 152.922 521.909 139.332 560.44 139.332V138.332V137.332C521.451 137.332 490.532 151.102 473.195 177.223L474.028 177.776ZM560.44 138.332V139.332C577.208 139.332 591.455 141.824 604.56 146.568L604.9 145.628L605.24 144.688C591.897 139.856 577.416 137.332 560.44 137.332V138.332ZM604.9 145.628L604.548 146.564C630.889 156.47 647.988 176.017 654.079 206.925L655.06 206.732L656.041 206.539C649.82 174.975 632.263 154.85 605.252 144.692L604.9 145.628ZM655.06 206.732V205.732H613.792V206.732V207.732H655.06V206.732ZM613.792 206.732L614.776 206.556C612.794 195.477 607.292 186.735 598.209 180.787C589.156 174.858 576.63 171.76 560.668 171.76V172.76V173.76C576.398 173.76 588.496 176.818 597.113 182.46C605.7 188.083 610.914 196.327 612.808 206.908L613.792 206.732ZM560.668 172.76V171.76C541.758 171.76 526.496 175.422 515.951 183.923C505.362 192.458 499.704 205.725 499.704 224.516H500.704H501.704C501.704 206.143 507.218 193.532 517.206 185.48C527.238 177.394 541.958 173.76 560.668 173.76V172.76ZM500.704 224.516H499.704V224.972H500.704H501.704V224.516H500.704ZM500.704 224.972H499.704C499.704 242.626 505.079 255.432 515.319 263.794C525.52 272.124 540.381 275.904 559.072 275.904V274.904V273.904C540.599 273.904 526.276 270.16 516.584 262.245C506.931 254.362 501.704 242.202 501.704 224.972H500.704ZM559.072 274.904V275.904C577.306 275.904 590.437 272.41 599.487 265.615C608.565 258.799 613.388 248.776 615.238 236.06L614.248 235.916L613.258 235.772C611.46 248.136 606.821 257.607 598.286 264.015C589.723 270.444 577.09 273.904 559.072 273.904V274.904ZM614.248 235.916V236.916H655.972V235.916V234.916H614.248V235.916ZM800.654 273.992L801.648 273.882L801.285 270.591L799.766 273.533L800.654 273.992ZM692.81 238.652L693.228 239.56L693.238 239.556L692.81 238.652ZM707.174 233.408L706.927 232.439L706.905 232.445L706.883 232.451L707.174 233.408ZM761.438 227.252L761.495 228.25L761.508 228.25L761.438 227.252ZM784.01 225.2L783.863 224.211L783.851 224.213L783.839 224.215L784.01 225.2ZM794.954 206.276L794.183 206.913L794.199 206.933L794.217 206.952L794.954 206.276ZM734.99 199.892L735.209 200.868L735.237 200.861L735.265 200.854L734.99 199.892ZM715.154 219.728V220.728H716.051L716.148 219.836L715.154 219.728ZM675.254 219.728L674.262 219.605L674.122 220.728H675.254V219.728ZM800.654 174.128L800.921 173.164L800.911 173.162L800.901 173.159L800.654 174.128ZM835.538 305V306H836.538V305H835.538ZM804.074 305L803.08 305.11L803.178 306H804.074V305ZM770.102 276.044L769.707 275.125L769.702 275.127L770.102 276.044ZM798.83 241.388H799.83V238.388L798.03 240.788L798.83 241.388ZM764.858 250.28L764.903 251.279L764.911 251.279L764.858 250.28ZM721.31 256.664L720.874 255.764L720.863 255.77L721.31 256.664ZM800.654 273.992L799.766 273.533C789.269 293.856 765.514 308.332 727.922 308.332V309.332V310.332C766.026 310.332 790.607 295.624 801.543 274.451L800.654 273.992ZM727.922 309.332V308.332C709.992 308.332 696.255 305.319 687.028 299.317C677.872 293.36 673.062 284.397 673.062 272.168H672.062H671.062C671.062 285.019 676.17 294.638 685.938 300.993C695.635 307.303 709.828 310.332 727.922 310.332V309.332ZM672.062 272.168H673.062V271.94H672.062H671.062V272.168H672.062ZM672.062 271.94H673.062C673.062 264.441 674.628 257.962 677.904 252.566C681.178 247.175 686.199 242.796 693.228 239.56L692.81 238.652L692.392 237.744C685.057 241.12 679.705 245.747 676.195 251.528C672.688 257.304 671.062 264.163 671.062 271.94H672.062ZM692.81 238.652L693.238 239.556C697.5 237.537 702.229 235.958 707.465 234.365L707.174 233.408L706.883 232.451C701.631 234.05 696.784 235.663 692.382 237.748L692.81 238.652ZM707.174 233.408L707.421 234.377C718.034 231.667 733.452 229.846 761.495 228.25L761.438 227.252L761.381 226.254C733.337 227.85 717.746 229.677 706.927 232.439L707.174 233.408ZM761.438 227.252L761.508 228.25C771.277 227.568 778.872 227.109 784.181 226.185L784.01 225.2L783.839 224.215C778.66 225.115 771.207 225.568 761.368 226.254L761.438 227.252ZM784.01 225.2L784.157 226.189C789.548 225.386 793.345 224.219 795.802 222.415C798.353 220.543 799.374 218.052 799.374 214.94H798.374H797.374C797.374 217.528 796.571 219.369 794.619 220.803C792.573 222.305 789.188 223.418 783.863 224.211L784.01 225.2ZM798.374 214.94H799.374V214.712H798.374H797.374V214.94H798.374ZM798.374 214.712H799.374C799.374 211.499 798.369 208.522 795.691 205.6L794.954 206.276L794.217 206.952C796.555 209.502 797.374 211.997 797.374 214.712H798.374ZM794.954 206.276L795.725 205.639C793.386 202.807 789.529 200.502 783.943 198.902C778.352 197.301 770.956 196.384 761.438 196.384V197.384V198.384C770.844 198.384 778.04 199.291 783.393 200.825C788.751 202.36 792.191 204.501 794.183 206.913L794.954 206.276ZM761.438 197.384V196.384C750.022 196.384 741.241 197.066 734.715 198.93L734.99 199.892L735.265 200.854C741.508 199.07 750.054 198.384 761.438 198.384V197.384ZM734.99 199.892L734.771 198.916C728.048 200.423 723.167 202.827 719.821 206.294C716.463 209.773 714.747 214.222 714.16 219.62L715.154 219.728L716.148 219.836C716.701 214.746 718.291 210.759 721.26 207.683C724.241 204.595 728.708 202.325 735.209 200.868L734.99 199.892ZM715.154 219.728V218.728H675.254V219.728V220.728H715.154V219.728ZM675.254 219.728L676.246 219.851C678.377 202.695 686.308 190.439 699.874 182.428C713.5 174.38 732.899 170.568 758.018 170.568V169.568V168.568C732.75 168.568 712.932 172.394 698.857 180.705C684.72 189.053 676.463 201.877 674.262 219.605L675.254 219.728ZM758.018 169.568V170.568C775.058 170.568 788.88 172.159 800.407 175.097L800.654 174.128L800.901 173.159C789.172 170.169 775.178 168.568 758.018 168.568V169.568ZM800.654 174.128L800.387 175.092C811.754 178.243 820.251 183.387 825.924 191.162C831.601 198.944 834.538 209.486 834.538 223.604H835.538H836.538C836.538 209.222 833.547 198.218 827.539 189.983C821.527 181.741 812.582 176.397 800.921 173.164L800.654 174.128ZM835.538 223.604H834.538V305H835.538H836.538V223.604H835.538ZM835.538 305V304H804.074V305V306H835.538V305ZM804.074 305L805.068 304.89L801.648 273.882L800.654 273.992L799.66 274.102L803.08 305.11L804.074 305ZM739.55 281.972V282.972C751.3 282.972 761.47 280.898 770.502 276.961L770.102 276.044L769.702 275.127C760.95 278.942 751.056 280.972 739.55 280.972V281.972ZM770.102 276.044L770.497 276.963C788.683 269.136 799.83 256.099 799.83 242.3H798.83H797.83C797.83 254.949 787.545 267.448 769.707 275.125L770.102 276.044ZM798.83 242.3H799.83V241.388H798.83H797.83V242.3H798.83ZM798.83 241.388L798.03 240.788C796.511 242.813 793.624 244.669 788.329 246.154C783.045 247.635 775.491 248.713 764.805 249.281L764.858 250.28L764.911 251.279C775.657 250.707 783.379 249.619 788.869 248.079C794.346 246.543 797.729 244.523 799.63 241.988L798.83 241.388ZM764.858 250.28L764.813 249.281C739.766 250.42 728.157 252.24 720.874 255.764L721.31 256.664L721.746 257.564C728.599 254.248 739.791 252.42 764.903 251.279L764.858 250.28ZM721.31 256.664L720.863 255.77C718.021 257.191 715.821 258.942 714.333 261.08C712.838 263.229 712.102 265.713 712.102 268.52H713.102H714.102C714.102 266.083 714.734 264.007 715.975 262.223C717.223 260.428 719.128 258.873 721.757 257.558L721.31 256.664ZM713.102 268.52H712.102V268.748H713.102H714.102V268.52H713.102ZM713.102 268.748H712.102C712.102 271.057 712.589 273.152 713.683 274.982C714.777 276.813 716.437 278.313 718.678 279.494C723.119 281.834 729.934 282.972 739.55 282.972V281.972V280.972C730.014 280.972 723.605 279.83 719.61 277.724C717.633 276.682 716.273 275.417 715.4 273.957C714.527 272.495 714.102 270.771 714.102 268.748H713.102ZM865.276 305H864.276V306H865.276V305ZM865.276 174.128V173.128H864.276V174.128H865.276ZM898.792 174.128L899.785 174.01L899.68 173.128H898.792V174.128ZM903.124 210.608L902.131 210.726L904.082 210.896L903.124 210.608ZM973.12 172.76H974.12V171.76H973.12V172.76ZM973.12 210.608V211.608H974.12V210.608H973.12ZM924.1 215.396L924.501 216.312L924.513 216.307L924.524 216.301L924.1 215.396ZM904.72 305V306H905.72V305H904.72ZM865.276 305H866.276V174.128H865.276H864.276V305H865.276ZM865.276 174.128V175.128H898.792V174.128V173.128H865.276V174.128ZM898.792 174.128L897.799 174.246L902.131 210.726L903.124 210.608L904.117 210.49L899.785 174.01L898.792 174.128ZM903.124 210.608L904.082 210.896C907.572 199.299 913.23 190.042 921.681 183.676C930.13 177.311 941.473 173.76 956.476 173.76V172.76V171.76C941.155 171.76 929.356 175.391 920.477 182.079C911.6 188.766 905.744 198.433 902.166 210.32L903.124 210.608ZM956.476 172.76V173.76H973.12V172.76V171.76H956.476V172.76ZM973.12 172.76H972.12V210.608H973.12H974.12V172.76H973.12ZM973.12 210.608V209.608H955.564V210.608V211.608H973.12V210.608ZM955.564 210.608V209.608C941.854 209.608 931.18 210.973 923.676 214.491L924.1 215.396L924.524 216.301C931.612 212.979 941.914 211.608 955.564 211.608V210.608ZM924.1 215.396L923.699 214.48C916.152 217.782 911.124 223.114 908.01 230.899C904.917 238.631 903.72 248.76 903.72 261.68H904.72H905.72C905.72 248.836 906.917 239.015 909.866 231.642C912.794 224.322 917.456 219.394 924.501 216.312L924.1 215.396ZM904.72 261.68H903.72V305H904.72H905.72V261.68H904.72ZM904.72 305V304H865.276V305V306H904.72V305ZM1157.07 266.012L1157.99 266.412L1158.6 265.012H1157.07V266.012ZM1019.82 300.896L1019.39 301.802L1019.4 301.807L1019.42 301.813L1019.82 300.896ZM994.735 206.048L993.875 205.539L993.872 205.544L994.735 206.048ZM1119 177.776L1119.4 176.861L1119.39 176.858L1119 177.776ZM1158.67 253.472V254.472H1159.67V253.472H1158.67ZM1021.87 253.472V252.472H1020.57L1020.9 253.73L1021.87 253.472ZM1114.44 266.012V265.012H1113.92L1113.62 265.429L1114.44 266.012ZM1022.78 225.884L1021.83 225.579L1021.41 226.884H1022.78V225.884ZM1120.36 225.884V226.884H1121.61L1121.34 225.663L1120.36 225.884ZM1157.07 266.012L1156.16 265.612C1149.19 281.573 1138.31 292.223 1123.82 298.905C1109.3 305.602 1091.11 308.332 1069.52 308.332V309.332V310.332C1091.25 310.332 1109.77 307.59 1124.66 300.721C1139.58 293.837 1150.82 282.827 1157.99 266.412L1157.07 266.012ZM1069.52 309.332V308.332C1048.86 308.332 1032.59 305.379 1020.22 299.979L1019.82 300.896L1019.42 301.813C1032.12 307.357 1048.69 310.332 1069.52 310.332V309.332ZM1019.82 300.896L1020.24 299.99C1007.98 294.255 999.485 286.355 994.04 276.638C988.589 266.91 986.159 255.291 986.159 242.072H985.159H984.159C984.159 255.529 986.632 267.508 992.296 277.616C997.966 287.735 1006.8 295.909 1019.39 301.802L1019.82 300.896ZM985.159 242.072H986.159C986.159 229.02 989.307 217.339 995.599 206.552L994.735 206.048L993.872 205.544C987.396 216.645 984.159 228.676 984.159 242.072H985.159ZM994.735 206.048L995.596 206.557C1008.6 184.59 1033.53 170.34 1072.48 170.34V169.34V168.34C1033.01 168.34 1007.32 182.818 993.875 205.539L994.735 206.048ZM1072.48 169.34V170.34C1090.62 170.34 1105.53 173.06 1118.6 178.694L1119 177.776L1119.39 176.858C1106.01 171.092 1090.83 168.34 1072.48 168.34V169.34ZM1119 177.776L1118.59 178.69C1131.32 184.324 1141.08 192.3 1147.65 202.459C1154.23 212.618 1157.67 225.019 1157.67 239.564H1158.67H1159.67C1159.67 224.697 1156.15 211.904 1149.33 201.372C1142.51 190.84 1132.43 182.628 1119.4 176.862L1119 177.776ZM1158.67 239.564H1157.67V253.472H1158.67H1159.67V239.564H1158.67ZM1158.67 253.472V252.472H1021.87V253.472V254.472H1158.67V253.472ZM1021.87 253.472L1020.9 253.73C1023.25 262.53 1028.2 269.264 1036.64 273.763C1045.03 278.235 1056.79 280.464 1072.71 280.464V279.464V278.464C1056.94 278.464 1045.56 276.247 1037.59 271.998C1029.67 267.776 1025.05 261.514 1022.83 253.214L1021.87 253.472ZM1072.71 279.464V280.464C1096.72 280.464 1108.57 275.902 1115.25 266.595L1114.44 266.012L1113.62 265.429C1107.54 273.906 1096.58 278.464 1072.71 278.464V279.464ZM1114.44 266.012V267.012H1157.07V266.012V265.012H1114.44V266.012ZM1073.62 198.98V197.98C1059.04 197.98 1047.52 200.446 1038.92 205.142C1030.29 209.851 1024.64 216.781 1021.83 225.579L1022.78 225.884L1023.73 226.189C1026.39 217.887 1031.69 211.365 1039.87 206.897C1048.09 202.416 1059.25 199.98 1073.62 199.98V198.98ZM1022.78 225.884V226.884H1120.36V225.884V224.884H1022.78V225.884ZM1120.36 225.884L1121.34 225.663C1119.12 215.854 1114.3 208.871 1106.38 204.38C1098.52 199.922 1087.71 197.98 1073.62 197.98V198.98V199.98C1087.58 199.98 1097.98 201.914 1105.39 206.12C1112.75 210.293 1117.27 216.762 1119.39 226.105L1120.36 225.884ZM1222.91 191.228L1223.73 190.655L1221.91 188.056V191.228H1222.91ZM1222.91 305V306H1223.91V305H1222.91ZM1185.97 305H1184.97V306H1185.97V305ZM1185.97 142.436V141.436H1184.97V142.436H1185.97ZM1224.27 142.436L1225.02 141.769L1224.72 141.436H1224.27V142.436ZM1323 252.788L1323.83 252.233L1323.79 252.174L1323.74 252.121L1323 252.788ZM1324.37 254.84L1323.53 255.395L1325.37 258.143V254.84H1324.37ZM1324.37 142.436V141.436H1323.37V142.436H1324.37ZM1361.07 142.436H1362.07V141.436H1361.07V142.436ZM1361.07 305V306H1362.07V305H1361.07ZM1324.37 305L1323.62 305.667L1323.92 306H1324.37V305ZM1224.5 193.508L1223.68 194.081L1223.72 194.131L1223.76 194.175L1224.5 193.508ZM1222.91 191.228H1221.91V305H1222.91H1223.91V191.228H1222.91ZM1222.91 305V304H1185.97V305V306H1222.91V305ZM1185.97 305H1186.97V142.436H1185.97H1184.97V305H1185.97ZM1185.97 142.436V143.436H1224.27V142.436V141.436H1185.97V142.436ZM1224.27 142.436L1223.53 143.103L1322.25 253.455L1323 252.788L1323.74 252.121L1225.02 141.769L1224.27 142.436ZM1323 252.788L1322.17 253.343L1323.53 255.395L1324.37 254.84L1325.2 254.285L1323.83 252.233L1323 252.788ZM1324.37 254.84H1325.37V142.436H1324.37H1323.37V254.84H1324.37ZM1324.37 142.436V143.436H1361.07V142.436V141.436H1324.37V142.436ZM1361.07 142.436H1360.07V305H1361.07H1362.07V142.436H1361.07ZM1361.07 305V304H1324.37V305V306H1361.07V305ZM1324.37 305L1325.11 304.333L1225.25 192.841L1224.5 193.508L1223.76 194.175L1323.62 305.667L1324.37 305ZM1224.5 193.508L1225.32 192.935L1223.73 190.655L1222.91 191.228L1222.09 191.801L1223.68 194.081L1224.5 193.508ZM1420.84 300.896L1421.25 299.983L1421.24 299.979L1420.84 300.896ZM1395.99 202.628L1395.16 202.071L1395.15 202.077L1395.99 202.628ZM1518.42 177.776L1518.82 176.859L1518.82 176.858L1518.42 177.776ZM1549.89 276.5L1549.03 275.98L1549.03 275.99L1549.89 276.5ZM1471 309.332V308.332C1450.33 308.332 1433.84 305.604 1421.25 299.983L1420.84 300.896L1420.43 301.809C1433.38 307.588 1450.18 310.332 1471 310.332V309.332ZM1420.84 300.896L1421.24 299.979C1408.88 294.586 1400.16 286.746 1394.52 276.777C1388.87 266.794 1386.27 254.608 1386.27 240.476H1385.27H1384.27C1384.27 254.844 1386.92 267.396 1392.78 277.762C1398.65 288.142 1407.72 296.262 1420.44 301.813L1420.84 300.896ZM1385.27 240.476H1386.27C1386.27 226.06 1389.87 213.715 1396.82 203.179L1395.99 202.628L1395.15 202.077C1387.97 212.973 1384.27 225.708 1384.27 240.476H1385.27ZM1395.99 202.628L1396.82 203.185C1410.94 182.119 1437.24 170.34 1472.14 170.34V169.34V168.34C1436.82 168.34 1409.77 180.273 1395.16 202.071L1395.99 202.628ZM1472.14 169.34V170.34C1490.05 170.34 1504.96 173.06 1518.03 178.694L1518.42 177.776L1518.82 176.858C1505.44 171.092 1490.26 168.34 1472.14 168.34V169.34ZM1518.42 177.776L1518.03 178.693C1530.99 184.329 1541.03 192.309 1547.83 202.582C1554.63 212.853 1558.24 225.479 1558.24 240.476H1559.24H1560.24C1560.24 225.149 1556.55 212.125 1549.5 201.477C1542.45 190.831 1532.08 182.623 1518.82 176.859L1518.42 177.776ZM1559.24 240.476H1558.24C1558.24 254.004 1555.31 265.673 1549.03 275.98L1549.89 276.5L1550.74 277.02C1557.24 266.351 1560.24 254.308 1560.24 240.476H1559.24ZM1549.89 276.5L1549.03 275.99C1536.97 296.303 1512.1 308.332 1471 308.332V309.332V310.332C1512.44 310.332 1538.18 298.193 1550.75 277.01L1549.89 276.5ZM1472.14 277.64V278.64C1489.67 278.64 1501.87 275.381 1509.69 268.89C1517.55 262.363 1520.79 252.733 1520.79 240.476H1519.79H1518.79C1518.79 252.387 1515.65 261.339 1508.41 267.352C1501.12 273.401 1489.49 276.64 1472.14 276.64V277.64ZM1519.79 240.476H1520.79C1520.79 227.195 1517.27 216.894 1509.34 209.942C1501.44 203.014 1489.35 199.576 1472.6 199.576V200.576V201.576C1489.13 201.576 1500.64 204.978 1508.02 211.445C1515.37 217.888 1518.79 227.537 1518.79 240.476H1519.79ZM1472.6 200.576V199.576C1456.42 199.576 1444.17 202.842 1435.96 209.668C1427.72 216.525 1423.72 226.824 1423.72 240.476H1424.72H1425.72C1425.72 227.224 1429.58 217.573 1437.24 211.206C1444.94 204.808 1456.63 201.576 1472.6 201.576V200.576ZM1424.72 240.476H1423.72C1423.72 253.096 1427.31 262.723 1435.32 269.157C1443.28 275.552 1455.41 278.64 1472.14 278.64V277.64V276.64C1455.59 276.64 1444.01 273.572 1436.57 267.598C1429.19 261.663 1425.72 252.708 1425.72 240.476H1424.72ZM1632.07 305L1631.19 305.478L1631.48 306H1632.07V305ZM1560.94 174.128V173.128H1559.25L1560.06 174.606L1560.94 174.128ZM1603.8 174.128L1604.69 173.667L1604.41 173.128H1603.8V174.128ZM1651.45 265.784L1650.56 266.245L1651.44 267.928L1652.33 266.256L1651.45 265.784ZM1700.47 174.128V173.128H1699.87L1699.59 173.656L1700.47 174.128ZM1743.79 174.128L1744.66 174.625L1745.52 173.128H1743.79V174.128ZM1668.78 305V306H1669.36L1669.65 305.497L1668.78 305ZM1632.07 305L1632.95 304.522L1561.81 173.65L1560.94 174.128L1560.06 174.606L1631.19 305.478L1632.07 305ZM1560.94 174.128V175.128H1603.8V174.128V173.128H1560.94V174.128ZM1603.8 174.128L1602.91 174.589L1650.56 266.245L1651.45 265.784L1652.34 265.323L1604.69 173.667L1603.8 174.128ZM1651.45 265.784L1652.33 266.256L1701.35 174.6L1700.47 174.128L1699.59 173.656L1650.57 265.312L1651.45 265.784ZM1700.47 174.128V175.128H1743.79V174.128V173.128H1700.47V174.128ZM1743.79 174.128L1742.92 173.631L1667.91 304.503L1668.78 305L1669.65 305.497L1744.66 174.625L1743.79 174.128ZM1668.78 305V304H1632.07V305V306H1668.78V305ZM1873.86 273.992L1874.85 273.882L1874.49 270.591L1872.97 273.533L1873.86 273.992ZM1766.01 238.652L1766.43 239.56L1766.44 239.556L1766.01 238.652ZM1780.38 233.408L1780.13 232.439L1780.11 232.445L1780.09 232.451L1780.38 233.408ZM1834.64 227.252L1834.7 228.25L1834.71 228.25L1834.64 227.252ZM1857.21 225.2L1857.07 224.211L1857.05 224.213L1857.04 224.215L1857.21 225.2ZM1868.16 206.276L1867.39 206.913L1867.4 206.933L1867.42 206.952L1868.16 206.276ZM1808.19 199.892L1808.41 200.868L1808.44 200.861L1808.47 200.854L1808.19 199.892ZM1788.36 219.728V220.728H1789.25L1789.35 219.836L1788.36 219.728ZM1748.46 219.728L1747.46 219.605L1747.33 220.728H1748.46V219.728ZM1873.86 174.128L1874.12 173.164L1874.11 173.162L1874.1 173.159L1873.86 174.128ZM1908.74 305V306H1909.74V305H1908.74ZM1877.28 305L1876.28 305.11L1876.38 306H1877.28V305ZM1843.31 276.044L1842.91 275.125L1842.91 275.127L1843.31 276.044ZM1872.03 241.388H1873.03V238.388L1871.23 240.788L1872.03 241.388ZM1838.06 250.28L1838.11 251.279L1838.11 251.279L1838.06 250.28ZM1794.51 256.664L1794.08 255.764L1794.07 255.77L1794.51 256.664ZM1873.86 273.992L1872.97 273.533C1862.47 293.856 1838.72 308.332 1801.13 308.332V309.332V310.332C1839.23 310.332 1863.81 295.624 1874.75 274.451L1873.86 273.992ZM1801.13 309.332V308.332C1783.2 308.332 1769.46 305.319 1760.23 299.317C1751.08 293.36 1746.27 284.397 1746.27 272.168H1745.27H1744.27C1744.27 285.019 1749.37 294.638 1759.14 300.993C1768.84 307.303 1783.03 310.332 1801.13 310.332V309.332ZM1745.27 272.168H1746.27V271.94H1745.27H1744.27V272.168H1745.27ZM1745.27 271.94H1746.27C1746.27 264.441 1747.83 257.962 1751.11 252.566C1754.38 247.175 1759.4 242.796 1766.43 239.56L1766.01 238.652L1765.59 237.744C1758.26 241.12 1752.91 245.747 1749.4 251.528C1745.89 257.304 1744.27 264.163 1744.27 271.94H1745.27ZM1766.01 238.652L1766.44 239.556C1770.7 237.537 1775.43 235.958 1780.67 234.365L1780.38 233.408L1780.09 232.451C1774.83 234.05 1769.99 235.663 1765.59 237.748L1766.01 238.652ZM1780.38 233.408L1780.62 234.377C1791.24 231.667 1806.65 229.846 1834.7 228.25L1834.64 227.252L1834.58 226.254C1806.54 227.85 1790.95 229.677 1780.13 232.439L1780.38 233.408ZM1834.64 227.252L1834.71 228.25C1844.48 227.568 1852.08 227.109 1857.38 226.185L1857.21 225.2L1857.04 224.215C1851.86 225.115 1844.41 225.568 1834.57 226.254L1834.64 227.252ZM1857.21 225.2L1857.36 226.189C1862.75 225.386 1866.55 224.219 1869.01 222.415C1871.56 220.543 1872.58 218.052 1872.58 214.94H1871.58H1870.58C1870.58 217.528 1869.77 219.369 1867.82 220.803C1865.78 222.305 1862.39 223.418 1857.07 224.211L1857.21 225.2ZM1871.58 214.94H1872.58V214.712H1871.58H1870.58V214.94H1871.58ZM1871.58 214.712H1872.58C1872.58 211.499 1871.57 208.522 1868.89 205.6L1868.16 206.276L1867.42 206.952C1869.76 209.502 1870.58 211.997 1870.58 214.712H1871.58ZM1868.16 206.276L1868.93 205.639C1866.59 202.807 1862.73 200.502 1857.15 198.902C1851.56 197.301 1844.16 196.384 1834.64 196.384V197.384V198.384C1844.05 198.384 1851.24 199.291 1856.6 200.825C1861.95 202.36 1865.39 204.501 1867.39 206.913L1868.16 206.276ZM1834.64 197.384V196.384C1823.22 196.384 1814.44 197.066 1807.92 198.93L1808.19 199.892L1808.47 200.854C1814.71 199.07 1823.26 198.384 1834.64 198.384V197.384ZM1808.19 199.892L1807.97 198.916C1801.25 200.423 1796.37 202.827 1793.02 206.294C1789.67 209.773 1787.95 214.222 1787.36 219.62L1788.36 219.728L1789.35 219.836C1789.9 214.746 1791.49 210.759 1794.46 207.683C1797.44 204.595 1801.91 202.325 1808.41 200.868L1808.19 199.892ZM1788.36 219.728V218.728H1748.46V219.728V220.728H1788.36V219.728ZM1748.46 219.728L1749.45 219.851C1751.58 202.695 1759.51 190.439 1773.08 182.428C1786.7 174.38 1806.1 170.568 1831.22 170.568V169.568V168.568C1805.95 168.568 1786.13 172.394 1772.06 180.705C1757.92 189.053 1749.67 201.877 1747.46 219.605L1748.46 219.728ZM1831.22 169.568V170.568C1848.26 170.568 1862.08 172.159 1873.61 175.097L1873.86 174.128L1874.1 173.159C1862.38 170.169 1848.38 168.568 1831.22 168.568V169.568ZM1873.86 174.128L1873.59 175.092C1884.96 178.243 1893.45 183.387 1899.13 191.162C1904.8 198.944 1907.74 209.486 1907.74 223.604H1908.74H1909.74C1909.74 209.222 1906.75 198.218 1900.74 189.983C1894.73 181.741 1885.79 176.397 1874.12 173.164L1873.86 174.128ZM1908.74 223.604H1907.74V305H1908.74H1909.74V223.604H1908.74ZM1908.74 305V304H1877.28V305V306H1908.74V305ZM1877.28 305L1878.27 304.89L1874.85 273.882L1873.86 273.992L1872.86 274.102L1876.28 305.11L1877.28 305ZM1812.75 281.972V282.972C1824.5 282.972 1834.67 280.898 1843.7 276.961L1843.31 276.044L1842.91 275.127C1834.15 278.942 1824.26 280.972 1812.75 280.972V281.972ZM1843.31 276.044L1843.7 276.963C1861.89 269.136 1873.03 256.099 1873.03 242.3H1872.03H1871.03C1871.03 254.949 1860.75 267.448 1842.91 275.125L1843.31 276.044ZM1872.03 242.3H1873.03V241.388H1872.03H1871.03V242.3H1872.03ZM1872.03 241.388L1871.23 240.788C1869.71 242.813 1866.83 244.669 1861.53 246.154C1856.25 247.635 1848.69 248.713 1838.01 249.281L1838.06 250.28L1838.11 251.279C1848.86 250.707 1856.58 249.619 1862.07 248.079C1867.55 246.543 1870.93 244.523 1872.83 241.988L1872.03 241.388ZM1838.06 250.28L1838.02 249.281C1812.97 250.42 1801.36 252.24 1794.08 255.764L1794.51 256.664L1794.95 257.564C1801.8 254.248 1812.99 252.42 1838.11 251.279L1838.06 250.28ZM1794.51 256.664L1794.07 255.77C1791.22 257.191 1789.02 258.942 1787.54 261.08C1786.04 263.229 1785.31 265.713 1785.31 268.52H1786.31H1787.31C1787.31 266.083 1787.94 264.007 1789.18 262.223C1790.43 260.428 1792.33 258.873 1794.96 257.558L1794.51 256.664ZM1786.31 268.52H1785.31V268.748H1786.31H1787.31V268.52H1786.31ZM1786.31 268.748H1785.31C1785.31 271.057 1785.79 273.152 1786.89 274.982C1787.98 276.813 1789.64 278.313 1791.88 279.494C1796.32 281.834 1803.14 282.972 1812.75 282.972V281.972V280.972C1803.22 280.972 1796.81 279.83 1792.81 277.724C1790.84 276.682 1789.48 275.417 1788.6 273.957C1787.73 272.495 1787.31 270.771 1787.31 268.748H1786.31Z" fill="black" mask="url(#path-1-outside-1_1201_55)"/>
<rect x="54" y="30" width="354" height="354" rx="108" fill="#3E38FF"/>
<mask id="mask0_1201_55" style="mask-type:luminance" maskUnits="userSpaceOnUse" x="195" y="89" width="154" height="154">
<path d="M195.775 89.8047H348.577V242.533H195.775V89.8047Z" fill="white"/>
</mask>
<g mask="url(#mask0_1201_55)">
<path d="M348.557 207.228C348.557 226.712 332.788 242.481 313.305 242.481H241.107C216.151 242.481 195.886 222.216 195.886 197.258V125.058C195.886 105.574 211.655 89.8047 231.138 89.8047C250.621 89.8047 266.39 105.574 266.39 125.058V171.975H313.305C332.788 171.975 348.557 187.809 348.557 207.228Z" fill="#67DCFF"/>
</g>
<mask id="mask1_1201_55" style="mask-type:luminance" maskUnits="userSpaceOnUse" x="113" y="171" width="154" height="154">
<path d="M113.423 171.44H266.225V324.195H113.423V171.44Z" fill="white"/>
</mask>
<g mask="url(#mask1_1201_55)">
<path d="M113.458 206.772C113.458 187.288 129.227 171.519 148.71 171.519H220.908C245.864 171.519 266.129 191.784 266.129 216.742V288.942C266.129 308.426 250.36 324.195 230.877 324.195C211.394 324.195 195.625 308.426 195.625 288.942V242.025H148.71C129.227 242.025 113.458 226.255 113.458 206.772Z" fill="#587DFF"/>
</g>
<path d="M266.129 216.742V242.481H241.107C216.151 242.481 195.886 222.215 195.886 197.258V171.519H220.908C245.864 171.519 266.129 191.784 266.129 216.742Z" fill="#2720FF"/>
</svg>
