<svg width="366" height="366" viewBox="0 0 366 366" fill="none" xmlns="http://www.w3.org/2000/svg">
<rect width="366" height="366" rx="108" fill="#F7F7F7"/>
<rect x="6" y="6" width="354" height="354" rx="108" fill="white"/>
<mask id="mask0_1201_27" style="mask-type:luminance" maskUnits="userSpaceOnUse" x="147" y="66" width="154" height="153">
<path d="M147.352 66H300.155V218.729H147.352V66Z" fill="white"/>
</mask>
<g mask="url(#mask0_1201_27)">
<path d="M300.134 183.423C300.134 202.907 284.365 218.677 264.883 218.677H192.685C167.729 218.677 147.464 198.411 147.464 173.454V101.253C147.464 81.769 163.233 66 182.716 66C202.198 66 217.967 81.769 217.967 101.253V148.17H264.883C284.365 148.17 300.134 164.005 300.134 183.423Z" fill="#67DCFF"/>
</g>
<mask id="mask1_1201_27" style="mask-type:luminance" maskUnits="userSpaceOnUse" x="65" y="147" width="153" height="154">
<path d="M65 147.635H217.802V300.391H65V147.635Z" fill="white"/>
</mask>
<g mask="url(#mask1_1201_27)">
<path d="M65.0358 182.967C65.0358 163.484 80.8048 147.714 100.288 147.714H172.485C197.442 147.714 217.706 167.98 217.706 192.937V265.137C217.706 284.621 201.938 300.391 182.455 300.391C162.972 300.391 147.203 284.621 147.203 265.137V218.22H100.288C80.8048 218.22 65.0358 202.451 65.0358 182.967Z" fill="#587DFF"/>
</g>
<path d="M217.706 192.937V218.677H192.685C167.729 218.677 147.464 198.411 147.464 173.454V147.714H172.485C197.442 147.714 217.706 167.98 217.706 192.937Z" fill="#2720FF"/>
</svg>
